<?xml version="1.0" standalone="no"?>
<!DOCTYPE svg PUBLIC "-//W3C//DTD SVG 20010904//EN"
 "http://www.w3.org/TR/2001/REC-SVG-20010904/DTD/svg10.dtd">
<svg version="1.0" xmlns="http://www.w3.org/2000/svg"
 width="1280.000000pt" height="720.000000pt" viewBox="0 0 1280.000000 720.000000"
 preserveAspectRatio="xMidYMid meet">
<metadata>
Created by potrace 1.16, written by Peter Selinger 2001-2019
</metadata>
<g transform="translate(0.000000,720.000000) scale(0.100000,-0.100000)"
fill="#000000" stroke="none">
<path d="M0 5955 l0 -1245 29 -30 c15 -17 33 -30 40 -30 13 0 12 7 17 -185 4
-198 9 -242 28 -264 9 -10 19 -45 22 -79 6 -53 4 -65 -12 -83 -17 -19 -19 -36
-16 -188 3 -188 14 -226 78 -271 19 -14 41 -29 47 -35 69 -57 106 -67 142 -39
19 14 20 13 25 -13 4 -22 12 -29 40 -34 19 -4 36 -12 38 -18 2 -6 21 -11 43
-11 21 0 39 -4 39 -10 0 -5 19 -10 43 -11 42 -1 41 -3 -20 -24 -13 -4 -23 -11
-23 -16 0 -4 -60 -10 -132 -13 -73 -3 -186 -8 -250 -11 -97 -5 -122 -3 -140 9
-12 9 -26 16 -30 16 -5 0 -8 -389 -8 -865 l0 -865 36 0 c51 0 128 -61 144
-115 7 -22 15 -49 19 -60 4 -11 4 -69 -1 -130 -4 -60 -10 -182 -12 -270 -2
-88 -9 -176 -16 -195 -25 -75 -33 -90 -46 -90 -8 0 -19 -8 -25 -18 -8 -12 -20
-17 -35 -14 -14 2 -24 0 -24 -7 0 -6 -9 -11 -20 -11 -20 0 -20 -7 -20 -365 l0
-365 3538 0 3537 0 28 147 c16 82 35 202 43 268 8 66 24 172 34 235 11 63 24
154 29 203 7 75 12 91 35 112 27 25 33 49 16 60 -20 13 -12 101 44 450 8 50
18 116 22 148 4 35 11 57 19 57 19 0 25 295 12 622 -9 249 -9 286 7 364 9 48
25 105 36 128 68 151 78 240 35 317 -13 24 -47 90 -75 147 -27 56 -54 102 -59
102 -4 0 -21 19 -37 42 -25 36 -29 51 -30 117 -1 42 -9 112 -18 156 -9 44 -14
86 -11 93 11 30 -6 43 -51 36 -57 -8 -114 24 -152 85 -69 114 -80 154 -63 228
6 27 13 93 16 148 3 55 10 125 16 155 8 35 9 93 4 160 -7 107 -20 550 -18 651
0 31 8 72 18 92 13 27 15 49 10 87 -6 46 -9 49 -30 44 -33 -8 -38 18 -9 57 13
18 24 41 24 51 0 18 26 61 63 104 19 22 25 64 14 99 -7 20 5 156 22 270 15 97
94 321 124 353 15 16 27 35 27 44 0 20 106 88 136 88 8 0 14 5 14 10 0 12 -27
13 -34 1 -3 -5 -15 -11 -26 -14 -18 -5 -19 -3 -5 29 12 29 131 153 156 162 5
2 9 8 9 13 0 13 33 46 100 99 30 24 58 46 62 49 4 4 -14 5 -40 3 -42 -2 -45
-1 -30 11 10 8 14 18 10 22 -4 4 5 5 19 2 18 -5 31 -2 39 8 7 8 19 15 26 15 8
0 22 4 32 9 36 20 151 61 171 61 11 0 23 5 26 10 3 6 23 10 43 10 42 0 71 13
53 24 -23 14 0 23 44 18 45 -5 135 20 135 38 0 10 78 22 180 27 41 2 104 6
140 9 94 8 280 5 315 -6 30 -8 263 -23 380 -24 33 -1 62 -4 65 -7 3 -3 39 -9
80 -12 103 -8 201 -27 194 -38 -3 -5 -16 -9 -29 -9 -13 0 -31 -3 -39 -6 -24
-9 -1 -34 31 -34 41 0 114 -22 120 -36 3 -8 18 -14 35 -14 16 0 45 -12 64 -26
40 -31 45 -49 9 -32 -14 6 -25 14 -25 18 0 3 -33 5 -72 4 -40 -1 -95 2 -123 8
-27 5 -79 11 -113 13 -53 3 -63 1 -58 -10 3 -9 -1 -15 -9 -15 -8 0 -15 5 -15
10 0 12 -76 12 -105 0 -19 -7 -18 -9 8 -19 16 -6 39 -8 53 -5 13 3 24 2 24 -4
0 -5 17 -13 37 -17 32 -6 76 -26 132 -60 9 -5 26 -20 38 -32 21 -21 21 -21 1
-26 -26 -7 -50 2 -45 18 3 6 -1 12 -9 12 -27 0 -93 26 -88 35 3 4 -34 7 -83 5
-70 -2 -90 1 -100 13 -8 10 -15 12 -22 5 -16 -16 20 -114 49 -128 33 -17 37
-36 5 -30 -15 3 -25 1 -25 -6 0 -6 -4 -11 -10 -11 -5 0 -10 9 -10 19 0 11 -12
29 -26 40 -14 11 -23 25 -19 31 8 14 -11 13 -35 -2 -15 -10 -30 -9 -73 5 -29
9 -59 17 -66 17 -14 0 10 -40 57 -94 30 -34 33 -43 27 -75 -3 -20 -7 -42 -7
-48 -1 -7 -5 -13 -9 -13 -11 0 -17 24 -12 52 3 14 0 29 -6 32 -6 4 -11 13 -11
21 0 13 -86 101 -116 118 -26 15 -35 -4 -14 -30 27 -34 26 -55 -3 -52 -12 2
-27 0 -33 -4 -17 -10 -4 -56 17 -62 10 -4 19 -14 20 -23 0 -11 3 -12 6 -4 2 6
14 12 26 12 17 0 27 -11 41 -48 30 -74 59 -101 73 -65 10 25 42 55 53 48 6 -4
10 -15 10 -25 0 -10 5 -22 10 -25 6 -4 8 -11 5 -16 -4 -5 -1 -9 4 -9 6 0 11
11 11 25 0 25 14 33 25 15 11 -17 23 -11 18 9 -8 30 13 33 32 5 13 -20 15 -32
7 -49 -9 -20 -8 -21 15 -17 24 5 25 3 18 -36 -8 -47 7 -62 36 -36 10 9 20 15
22 13 17 -24 26 -67 21 -102 l-6 -42 25 30 25 30 31 -29 c29 -27 33 -28 93
-22 34 4 66 13 70 19 4 6 10 8 14 4 4 -4 0 -13 -9 -20 -8 -6 -17 -23 -19 -37
-2 -17 -10 -26 -26 -28 -16 -2 -22 -9 -20 -20 4 -17 11 -18 62 -6 27 6 28 5
22 -19 -5 -21 -2 -27 24 -36 32 -11 42 -41 13 -41 -9 0 -14 -3 -10 -6 3 -4 24
-6 46 -6 23 0 45 -5 52 -14 6 -8 18 -14 26 -14 9 0 13 -6 9 -15 -3 -9 0 -15 8
-15 9 0 15 -22 20 -72 4 -51 11 -77 23 -85 21 -16 37 -17 28 -2 -10 16 25 49
52 49 26 0 31 -15 8 -24 -18 -7 -20 -26 -2 -26 8 0 12 -19 12 -63 0 -41 5 -71
16 -87 20 -30 19 -188 -1 -200 -9 -6 -6 -14 11 -31 14 -14 18 -24 11 -27 -8
-2 -12 -27 -12 -66 0 -49 4 -67 21 -84 15 -17 19 -30 14 -52 -8 -35 -8 -35
-40 -14 -27 18 -30 15 -38 -41 -2 -16 -7 -37 -11 -45 -4 -10 4 -22 24 -35 l29
-20 -21 -22 c-25 -26 -38 -29 -38 -8 0 15 -40 42 -40 28 -1 -4 -16 -26 -35
-47 -30 -34 -43 -40 -91 -47 -30 -4 -62 -13 -70 -20 -12 -9 -53 -12 -157 -9
-264 6 -250 7 -275 -16 -19 -18 -21 -22 -8 -27 24 -9 19 -36 -7 -46 -13 -5
-29 -17 -37 -26 -27 -32 -58 -37 -108 -15 -64 28 -73 17 -78 -96 -6 -116 -6
-116 5 -204 5 -41 7 -113 4 -160 -6 -100 10 -230 33 -265 9 -14 12 -25 6 -25
-13 0 -24 -43 -26 -97 -1 -24 -10 -54 -21 -70 -11 -15 -26 -39 -33 -53 -13
-25 -89 -80 -111 -80 -20 0 -12 -18 20 -43 25 -19 30 -29 24 -46 -4 -14 -12
-20 -21 -17 -23 9 -24 -9 -3 -43 11 -19 23 -57 26 -85 4 -29 13 -56 22 -63 14
-10 11 -16 -26 -47 -46 -40 -48 -63 -7 -95 13 -10 24 -21 24 -24 0 -17 -77
-16 -168 3 -57 11 -115 20 -129 20 -14 0 -62 8 -107 17 -78 16 -116 14 -116
-5 0 -8 66 -24 145 -36 17 -2 54 -13 83 -24 33 -13 92 -24 150 -28 54 -4 109
-13 124 -20 15 -8 38 -14 53 -14 14 0 25 -4 25 -9 0 -26 -34 -67 -69 -83 -23
-10 -41 -20 -41 -21 0 -1 24 -3 52 -4 78 -2 159 -11 166 -18 3 -3 1 -14 -5
-24 -13 -21 -6 -66 13 -82 11 -9 18 -8 32 4 12 11 22 13 28 7 6 -6 19 -4 37 5
25 13 27 12 27 -5 0 -10 7 -23 16 -28 19 -10 13 -52 -9 -73 -7 -7 -11 -25 -9
-41 4 -28 5 -28 24 -12 16 15 20 16 33 3 41 -41 12 -159 -40 -159 -19 0 -27
-7 -34 -33 -5 -17 -10 -24 -10 -14 -1 23 -17 22 -35 -5 -11 -16 -18 -18 -28
-10 -10 8 -14 3 -15 -21 -2 -18 -9 -37 -18 -43 -8 -6 -15 -15 -15 -20 0 -5
-22 -7 -50 -6 -38 3 -51 8 -55 23 -9 27 -25 13 -25 -22 0 -19 -6 -32 -17 -36
-10 -4 -24 -13 -32 -21 -13 -12 -16 -12 -28 3 -11 16 -15 16 -30 4 -10 -8 -24
-22 -31 -31 -19 -26 -51 -41 -97 -45 -85 -8 -125 -14 -125 -21 0 -9 152 -33
225 -37 28 -1 68 -9 90 -18 22 -9 50 -16 63 -17 25 0 29 -22 7 -40 -8 -7 -17
-28 -21 -49 -9 -57 -15 -71 -27 -71 -7 -1 -24 -18 -39 -40 l-27 -39 22 -7 c12
-5 28 -7 35 -5 8 1 19 -5 26 -14 6 -9 22 -17 34 -18 14 -1 21 -6 18 -14 -7
-16 9 -17 37 -2 13 8 22 8 24 2 2 -6 16 -8 31 -6 17 2 21 0 12 -4 -27 -14 -80
-57 -80 -65 0 -6 120 52 329 161 38 20 133 82 156 102 11 10 50 43 87 74 37
31 88 82 113 113 26 31 53 66 62 76 8 10 31 46 51 79 47 81 55 61 32 -83 -40
-245 -59 -327 -165 -705 -14 -49 -32 -121 -40 -160 -21 -94 -35 -135 -55 -165
-19 -28 -42 -91 -36 -98 3 -2 18 18 35 44 l31 49 0 -45 c0 -53 -102 -578 -139
-716 -6 -22 -20 -86 -31 -144 -11 -58 -27 -134 -35 -170 -42 -187 -76 -331
-81 -345 -6 -13 187 -15 1785 -15 l1791 0 0 3369 0 3368 -40 -7 c-34 -6 -47
-3 -77 17 -19 13 -38 22 -41 19 -7 -8 -62 26 -62 38 0 6 -13 24 -29 41 -62 65
-55 201 13 271 18 19 38 34 45 34 6 0 11 5 11 11 0 5 4 7 10 4 5 -3 10 -2 10
3 0 5 10 14 23 18 12 5 -254 10 -627 11 -471 2 -653 0 -662 -8 -16 -13 -19
-99 -4 -99 6 0 10 -7 10 -15 0 -11 11 -15 41 -15 28 0 53 -8 80 -27 33 -24 38
-32 34 -58 -2 -16 -7 -51 -10 -76 -7 -54 -11 -56 -102 -51 -42 3 -63 8 -63 16
0 7 -23 18 -51 24 -43 10 -53 10 -67 -4 -13 -13 -31 -15 -96 -12 -45 2 -92 11
-105 19 -30 18 -72 60 -89 89 -12 19 -11 25 7 44 11 11 28 39 38 62 10 22 26
49 36 58 9 10 17 26 17 37 0 18 -8 19 -110 19 l-110 0 -20 -40 c-12 -23 -24
-38 -29 -36 -9 6 -51 -30 -51 -43 0 -5 -8 -8 -17 -7 -11 0 -23 -11 -32 -30
-13 -31 -68 -64 -105 -64 -12 0 -16 -5 -13 -14 9 -22 -16 -37 -65 -40 -43 -4
-98 -23 -98 -36 0 -11 -100 -42 -116 -36 -9 4 -22 2 -28 -4 -18 -14 -134 -15
-181 -2 -23 6 -50 20 -62 31 -11 11 -24 17 -27 13 -9 -8 -67 58 -61 69 4 5 1
9 -6 9 -8 0 -9 3 0 14 6 7 14 59 17 115 l6 101 -1646 0 -1646 0 6 -47 c3 -27
7 -53 9 -60 2 -6 -3 -19 -10 -30 -8 -10 -15 -28 -15 -40 0 -28 -10 -28 -60 -4
-22 11 -40 15 -40 10 0 -5 -13 -9 -30 -9 -16 0 -30 5 -30 10 0 6 -11 10 -25
10 -22 0 -25 4 -25 40 0 29 -4 40 -15 40 -10 0 -15 -11 -15 -35 0 -19 -4 -35
-10 -35 -6 0 -10 32 -10 75 l0 75 -2085 0 -2085 0 0 -59 c0 -70 27 -163 53
-182 5 -4 -8 -16 -27 -29 -30 -18 -34 -25 -25 -36 8 -10 9 -14 0 -14 -6 0 -30
-18 -54 -39 -35 -33 -51 -40 -102 -46 -33 -4 -80 -14 -105 -21 -63 -19 -164
-18 -181 2 -7 8 -26 22 -43 31 -17 9 -41 26 -53 39 -12 13 -28 24 -35 24 -7 0
-24 16 -37 35 -21 31 -23 42 -17 97 3 35 9 93 12 131 l7 67 -43 0 -42 0 5
-114 c5 -104 3 -118 -17 -158 -28 -56 -101 -132 -120 -125 -7 3 -22 0 -33 -8
-27 -19 -82 -23 -92 -6 -5 7 -14 10 -21 6 -13 -8 -50 22 -50 41 0 7 -11 21
-23 31 -13 10 -27 35 -31 55 -5 25 -11 35 -24 34 -13 -1 -16 5 -14 26 4 37
-15 45 -23 9 -3 -16 -13 -35 -20 -41 -8 -7 -17 -27 -21 -45 -4 -21 -19 -43
-41 -62 -19 -15 -47 -38 -62 -50 -37 -29 -66 -33 -66 -8 0 11 -9 21 -22 25
-24 6 -93 81 -93 101 0 7 -7 20 -15 29 -12 13 -16 45 -17 139 l-2 121 -38 0
-38 0 0 -48 c0 -26 5 -53 12 -60 18 -18 -9 -117 -50 -183 -34 -54 -38 -57 -84
-62 -141 -17 -178 32 -175 231 l2 122 -172 0 -173 0 0 -1245z m9773 913 c12
-6 29 -15 37 -20 8 -4 26 -13 40 -19 14 -6 33 -15 42 -20 10 -5 23 -9 30 -9 6
0 29 -19 51 -42 33 -35 94 -78 112 -78 3 0 -2 12 -11 26 -17 25 -28 84 -15 84
33 -1 105 -117 95 -155 -4 -18 -2 -27 10 -31 20 -8 21 -57 1 -78 -8 -8 -15
-19 -15 -25 0 -23 -20 -10 -26 17 -10 50 -24 74 -39 68 -9 -3 -12 0 -8 9 5 14
-73 104 -90 105 -4 0 -21 15 -38 34 -16 19 -51 43 -77 52 -71 27 -90 39 -113
68 -23 29 -20 32 14 14z m532 -464 c68 -12 75 -15 75 -30 0 -17 119 -74 156
-74 17 0 24 -6 24 -20 0 -13 7 -20 20 -20 11 0 20 -5 20 -12 0 -6 7 -20 17
-30 14 -16 14 -18 1 -18 -9 0 -21 7 -28 15 -7 8 -22 15 -34 15 -20 -1 -19 -2
7 -25 15 -14 35 -25 43 -25 8 0 14 -4 14 -10 0 -5 9 -10 19 -10 23 0 36 -16
21 -25 -6 -4 -44 7 -85 24 -40 17 -85 31 -100 31 -25 0 -25 -1 -9 -25 20 -30
15 -31 -33 -5 -43 23 -114 27 -110 8 2 -13 206 -87 240 -88 9 0 17 -7 17 -15
0 -8 5 -15 10 -15 6 0 10 -11 10 -25 0 -16 6 -25 15 -25 21 0 19 -23 -4 -37
-12 -8 -31 -9 -57 -3 -22 4 -73 10 -114 13 l-75 4 76 -36 c155 -74 198 -92
216 -90 10 2 29 -1 43 -5 27 -10 140 -83 140 -92 0 -7 -99 4 -160 17 -72 15
-180 19 -180 5 0 -13 72 -56 95 -56 9 0 26 -5 38 -12 21 -11 21 -11 2 -19 -11
-4 -41 -8 -67 -8 -35 -1 -50 4 -60 18 -16 22 -48 33 -66 22 -18 -11 30 -50 70
-58 16 -3 31 -10 34 -14 15 -25 131 9 126 36 -3 14 3 16 36 10 76 -12 150 -45
103 -45 -13 0 -35 -7 -49 -15 -15 -8 -70 -18 -122 -22 -92 -8 -97 -7 -145 19
-48 26 -95 37 -95 21 1 -15 35 -51 60 -63 29 -15 104 -72 108 -82 2 -5 12 -8
23 -8 10 0 19 -4 19 -10 0 -21 63 -42 112 -38 27 3 46 2 41 -3 -12 -11 -93
-14 -132 -5 -24 6 -36 4 -42 -5 -6 -10 -12 -8 -26 7 -25 29 -132 90 -169 98
-29 7 -48 22 -123 101 l-35 36 18 34 c14 26 16 38 8 48 -17 20 -3 87 17 87 10
0 2 13 -24 35 l-40 34 30 1 30 1 -26 14 c-19 10 -28 24 -31 50 -2 19 1 40 6
45 15 15 73 11 151 -11 39 -11 81 -22 95 -25 64 -15 128 5 79 24 -36 15 -156
35 -167 28 -5 -3 -31 1 -59 8 -36 10 -63 26 -93 56 l-43 43 22 18 c21 18 22
18 2 28 -13 7 -18 19 -16 32 2 11 -1 29 -7 39 -10 15 -9 23 6 38 11 13 14 22
7 27 -32 19 15 91 53 81 11 -4 35 -9 51 -12z m-15 -895 c19 -1 126 -133 121
-151 -8 -30 -9 -78 0 -83 5 -4 6 0 3 8 -3 8 2 20 11 27 8 7 15 21 15 31 0 10
5 21 10 24 6 4 9 3 8 -2 -2 -4 0 -9 4 -11 4 -1 30 -24 58 -51 29 -27 64 -51
81 -55 19 -4 33 -13 36 -26 3 -11 12 -20 19 -20 8 0 14 -7 14 -15 0 -9 12 -18
30 -21 17 -4 30 -12 30 -20 0 -7 9 -15 19 -19 16 -5 18 -11 12 -28 -7 -18 -15
-21 -40 -19 -18 2 -38 -1 -46 -8 -22 -18 -100 6 -114 36 -6 14 -11 31 -11 38
0 8 -7 19 -14 26 -8 6 -23 33 -33 58 -22 59 -49 90 -64 75 -7 -7 -7 -16 0 -29
5 -11 29 -59 53 -109 23 -49 46 -91 50 -93 11 -5 10 -60 -2 -67 -17 -10 -50
15 -50 38 0 29 -38 64 -46 43 -6 -16 51 -144 72 -161 16 -13 25 -105 10 -105
-6 0 -21 27 -34 59 -37 97 -138 214 -193 226 -16 4 -29 13 -29 21 0 8 -11 19
-24 24 -18 6 -28 21 -36 50 -7 24 -17 40 -26 40 -13 0 -13 3 0 22 9 12 16 33
16 45 0 17 6 23 24 23 19 0 22 4 18 25 -2 14 -9 25 -14 25 -6 0 -5 6 1 14 9
11 9 20 2 35 -16 28 -14 58 4 65 8 3 15 9 14 13 -3 20 2 26 13 15 7 -7 19 -12
28 -13z m789 -305 c13 -10 32 -27 43 -36 12 -10 25 -18 29 -18 5 0 13 -18 19
-40 6 -21 15 -42 20 -45 6 -3 10 -15 10 -26 0 -10 4 -19 9 -19 13 0 21 -28 25
-89 2 -35 -1 -51 -9 -51 -35 0 -55 -171 -49 -410 8 -253 6 -343 -7 -429 -22
-153 -26 -210 -12 -215 9 -4 13 -30 13 -88 0 -115 -9 -160 -32 -166 -18 -4
-18 -5 -1 -18 17 -13 17 -13 0 -14 -14 0 -17 -5 -12 -22 l7 -23 -16 22 c-9 12
-15 26 -14 30 2 4 -7 18 -18 29 -25 25 -42 127 -25 148 17 20 61 109 61 122 0
27 -49 44 -123 44 l-75 0 -33 44 c-19 25 -43 46 -53 48 -12 2 -23 15 -29 33
-5 17 -9 236 -9 488 l0 459 -26 -6 c-15 -4 -32 -8 -39 -9 -7 -2 -16 -6 -19
-10 -4 -4 -18 -7 -31 -7 -29 0 -30 -18 0 -29 22 -9 31 -8 76 5 18 5 23 4 19
-7 -6 -17 -88 -34 -123 -25 -20 5 -25 13 -25 36 0 29 15 37 53 31 4 -1 17 4
28 10 16 8 18 13 8 25 -6 8 -18 14 -25 14 -8 0 -14 2 -14 4 0 2 -3 11 -6 20
-4 12 0 16 15 16 12 0 24 -7 27 -15 8 -20 32 -19 74 4 33 17 49 49 23 44 -18
-4 -16 5 10 40 12 18 30 47 39 67 9 19 17 29 17 22 1 -10 9 -8 29 6 15 11 36
22 47 25 36 10 101 0 124 -19z m-1409 -352 c45 -6 55 -10 54 -25 -1 -10 9 -29
22 -42 13 -13 24 -34 24 -47 1 -24 29 -113 44 -136 4 -7 6 -16 2 -19 -3 -3
-28 18 -56 46 -50 51 -157 111 -197 111 -11 0 -25 -10 -31 -25 -12 -27 -8 -32
36 -45 l27 -7 -28 -12 c-19 -7 -34 -8 -47 -1 -28 15 -132 12 -180 -5 -24 -8
-68 -18 -99 -21 l-56 -7 24 27 c32 35 104 77 166 97 l50 17 -50 1 c-51 1 -95
-11 -153 -42 -40 -22 -91 -19 -106 6 -9 16 -6 23 22 47 37 30 98 45 227 55 44
4 84 10 90 15 22 18 117 23 215 12z m-5971 -109 c-1 -67 12 -107 41 -125 11
-7 20 -23 20 -35 0 -13 5 -23 10 -23 6 0 10 -18 10 -40 0 -22 4 -40 8 -40 5 0
15 -18 22 -40 7 -22 17 -40 22 -40 4 0 8 -11 8 -25 0 -14 5 -25 10 -25 6 0 10
-5 10 -12 0 -6 12 -27 28 -47 15 -20 32 -45 38 -56 28 -52 40 -71 57 -83 9 -7
17 -19 17 -27 0 -7 5 -15 10 -17 6 -2 13 -16 16 -33 6 -33 21 -55 38 -55 14 0
56 -44 56 -59 0 -6 9 -16 20 -23 11 -7 20 -17 20 -21 0 -16 55 -87 67 -87 28
0 21 -66 -8 -75 -10 -3 -28 -8 -39 -11 -15 -4 -20 -1 -20 15 0 29 -18 26 -30
-4 -5 -14 -17 -25 -28 -25 -11 0 -26 -14 -37 -34 -18 -33 -18 -36 -2 -54 9
-10 17 -24 17 -30 0 -7 11 -12 25 -12 15 0 24 -5 22 -12 -3 -18 101 -17 112 1
14 22 166 18 231 -6 114 -42 150 -64 150 -89 0 -28 17 -33 22 -7 3 16 6 15 26
-5 12 -12 28 -22 35 -22 22 0 28 -12 15 -28 -7 -8 -17 -24 -23 -36 -8 -16 -25
-23 -70 -30 -33 -5 -62 -13 -66 -18 -3 -4 -120 -7 -260 -5 -139 1 -290 0 -334
-3 l-81 -4 -42 41 c-23 22 -42 46 -42 52 0 6 -9 16 -20 23 -11 7 -20 18 -20
25 0 7 -8 17 -18 22 -10 5 -19 22 -20 38 -5 71 -24 188 -31 193 -4 3 -13 52
-20 110 -6 58 -16 141 -21 185 -5 44 -14 121 -20 170 -5 50 -8 162 -5 250 2
88 4 180 4 205 0 52 20 132 35 142 28 19 36 7 35 -49z m5651 -170 c17 -60 60
-104 109 -110 36 -5 48 -1 87 27 29 20 51 29 62 25 15 -5 14 -9 -8 -25 l-25
-19 53 -7 c28 -3 52 -10 52 -13 0 -11 -146 -51 -185 -51 -19 0 -35 -4 -35 -10
0 -9 10 -11 83 -14 16 -1 33 -9 38 -19 8 -13 14 -15 30 -7 11 6 47 10 82 8
l62 -3 -2 -52 c-3 -69 -47 -139 -80 -126 -7 3 -15 -6 -19 -21 -3 -14 -13 -26
-20 -26 -8 0 -20 -11 -26 -25 -7 -15 -20 -25 -32 -25 -20 -1 -21 -1 -2 -12 15
-8 21 -8 24 0 2 7 14 12 26 12 12 0 37 15 56 33 51 47 82 67 107 67 23 0 74
63 88 110 4 14 12 31 18 38 5 7 12 36 14 64 2 29 9 61 16 72 6 12 10 27 9 33
-2 7 4 25 11 40 l15 27 7 -32 c3 -18 12 -32 18 -33 7 -1 20 -2 31 -3 47 -3 70
-141 35 -208 -6 -10 -11 -40 -13 -67 -3 -56 -21 -85 -48 -78 -10 3 -18 1 -18
-4 0 -5 7 -9 15 -9 18 0 20 -17 3 -22 -8 -3 -13 -25 -13 -59 -1 -51 -13 -96
-35 -129 -6 -8 -13 -23 -16 -32 -4 -10 -12 -18 -19 -18 -7 0 -16 -19 -19 -44
-7 -44 -23 -60 -51 -50 -8 4 -17 -1 -21 -10 -3 -9 -11 -16 -17 -16 -6 0 -26
-14 -44 -32 -30 -29 -33 -37 -33 -93 0 -34 -5 -66 -12 -73 -11 -11 -13 -109
-2 -144 6 -20 34 -24 51 -7 6 6 17 8 23 4 17 -11 3 -75 -22 -97 -22 -19 -30
-73 -16 -101 5 -10 13 -15 19 -12 10 7 12 -47 3 -82 -4 -13 -13 -23 -20 -23
-9 0 -14 -11 -14 -29 0 -29 -14 -41 -51 -41 -24 0 -24 6 3 61 11 24 21 55 21
69 -1 60 -7 106 -18 128 -12 22 -13 22 -29 -18 -9 -22 -16 -48 -17 -58 -1 -21
-37 -102 -38 -84 -1 6 -5 12 -9 12 -5 0 -9 -6 -9 -12 -1 -22 -63 -189 -86
-232 -12 -23 -43 -61 -69 -85 l-46 -42 -36 15 c-29 12 -36 21 -37 43 -2 151
-7 178 -43 247 -20 38 -35 78 -34 90 2 11 -1 21 -7 22 -20 1 -65 27 -65 37 0
6 7 19 16 29 14 15 15 20 4 33 -11 13 -10 18 8 31 13 9 22 26 22 42 l1 27 24
-28 c17 -19 23 -36 20 -57 -5 -42 22 -86 62 -98 20 -6 33 -6 33 -1 0 6 9 5 21
-1 17 -10 20 -17 14 -51 -4 -21 -3 -39 2 -39 15 1 73 129 73 162 0 52 -19 106
-45 133 -14 13 -25 29 -25 36 0 6 -8 9 -20 6 -11 -3 -20 -1 -20 4 0 5 -13 15
-28 23 -15 8 -34 30 -41 49 -10 25 -19 33 -31 30 -16 -4 -70 41 -70 59 0 3
-16 16 -35 28 -19 12 -35 25 -35 29 0 5 11 20 25 35 14 15 25 31 25 36 0 13
52 90 61 90 8 0 6 40 -11 185 -5 44 -12 100 -15 125 -2 25 -2 39 1 33 8 -17
24 -16 24 1 0 33 33 25 74 -17 42 -44 124 -97 151 -97 7 0 15 -5 17 -11 2 -5
22 -13 46 -16 35 -5 42 -3 42 12 0 9 -13 22 -30 28 -23 9 -29 16 -24 30 5 15
2 18 -13 13 -13 -4 -30 6 -58 35 -22 22 -51 50 -64 62 -72 64 -121 128 -121
158 0 9 11 21 25 27 34 16 32 29 -11 73 -39 40 -38 59 2 59 24 0 32 14 14 25
-28 17 6 65 45 65 19 0 26 -8 35 -37z m-3893 -325 c9 23 31 12 37 -20 3 -17
13 -39 21 -48 13 -15 23 -48 41 -140 3 -14 9 -83 15 -155 5 -71 15 -146 21
-165 8 -25 8 -35 -1 -38 -6 -2 -11 -9 -11 -14 0 -6 3 -8 7 -5 3 4 12 -5 20
-19 14 -29 18 -124 4 -124 -4 0 -6 -11 -3 -25 3 -20 1 -24 -11 -19 -10 3 -18
-2 -22 -15 -5 -18 -14 -21 -68 -21 l-62 0 -13 40 c-17 55 1 115 41 131 54 23
62 77 19 124 -15 17 -34 46 -42 65 -7 19 -17 40 -20 45 -4 6 -11 31 -14 57 -4
25 -14 52 -21 58 -16 13 -21 85 -6 94 5 3 6 25 4 48 -6 53 33 169 49 147 7
-11 11 -11 15 -1z m5163 -938 c7 -16 16 -27 21 -24 5 3 6 -2 3 -10 -3 -8 2
-26 11 -40 9 -14 14 -30 11 -35 -18 -28 200 -44 224 -16 10 12 17 9 48 -22 22
-22 37 -48 39 -67 2 -16 8 -35 13 -40 20 -20 11 -63 -17 -82 -24 -15 -46 -18
-154 -15 -93 1 -137 -2 -170 -13 -24 -9 -57 -16 -73 -16 -39 0 -105 31 -106
50 0 9 -7 26 -16 38 -16 23 -13 33 28 102 4 8 16 31 24 50 9 19 22 39 30 43 9
5 11 18 7 37 -3 19 -1 30 6 30 6 0 11 5 11 12 0 13 29 48 40 48 4 0 13 -13 20
-30z m-10041 -1661 c17 -6 31 -17 31 -24 0 -8 8 -16 19 -20 12 -3 26 -28 40
-69 19 -57 21 -79 17 -227 -3 -90 -6 -218 -7 -284 -1 -96 -5 -128 -21 -162
-11 -24 -21 -49 -22 -57 -3 -22 -27 -46 -45 -46 -9 0 -24 -7 -34 -14 -25 -19
-58 -8 -106 37 -61 56 -67 87 -63 337 6 354 6 351 30 415 22 59 29 65 107 112
24 15 16 15 54 2z m499 -29 c17 -11 32 -27 32 -36 0 -10 5 -14 15 -11 8 4 17
2 20 -3 17 -27 33 -122 30 -175 -2 -33 -8 -154 -13 -270 -10 -223 -19 -274
-57 -317 -20 -24 -96 -58 -128 -58 -7 0 -27 15 -44 33 -28 28 -39 48 -62 107
-3 8 -4 146 -2 305 l3 290 31 64 c43 89 104 114 175 71z m2788 -607 c3 -128
-9 -210 -27 -182 -6 10 -9 8 -9 -8 0 -13 -11 -30 -25 -39 -15 -9 -27 -30 -31
-50 -7 -40 -14 -46 -60 -48 -31 -1 -34 1 -34 26 0 17 5 28 14 28 7 0 19 14 26
30 7 17 20 30 30 30 13 0 19 10 22 38 3 20 1 40 -5 43 -5 4 -2 17 7 32 22 32
36 123 23 136 -8 8 -1 14 22 22 31 11 32 13 26 53 -6 32 -4 38 5 29 8 -7 13
-56 16 -140z"/>
<path d="M7935 6920 c-3 -5 -19 -10 -35 -10 -16 0 -41 -7 -57 -15 -15 -8 -47
-20 -70 -25 -24 -6 -43 -15 -43 -21 0 -15 103 -6 175 16 83 24 84 25 93 22 4
-1 6 -6 4 -11 -2 -5 9 -22 24 -38 35 -35 23 -54 -23 -37 -35 12 -114 1 -120
-17 -4 -12 38 -34 70 -35 19 -1 18 -2 -8 -14 -16 -8 -42 -14 -56 -15 -15 0
-29 -7 -33 -15 -3 -8 -18 -15 -33 -15 l-27 0 27 -28 c33 -34 34 -44 5 -37 -45
11 -108 13 -114 4 -3 -5 2 -9 10 -9 25 0 96 -41 96 -55 0 -12 -42 -12 -102 0
-10 2 -18 -1 -18 -6 0 -5 4 -9 9 -9 11 0 41 -28 41 -39 0 -4 -30 -5 -67 -3
l-68 4 63 -34 c35 -19 65 -39 65 -44 1 -5 -11 -10 -28 -12 -54 -5 -70 -11 -83
-33 -13 -20 -12 -21 3 -15 20 7 61 -15 87 -47 16 -21 17 -21 53 -4 40 19 55
44 34 58 -12 8 -12 11 1 19 8 5 26 10 38 10 15 0 26 7 29 19 3 10 20 27 39 37
27 15 32 23 28 41 -6 24 4 29 50 24 11 -1 27 6 38 15 22 20 36 11 18 -11 -25
-30 7 -14 49 25 32 30 51 40 76 40 19 0 37 5 41 11 4 8 25 9 61 5 47 -5 54 -4
49 9 -3 8 -9 21 -12 29 -7 19 84 9 108 -11 10 -9 24 -13 33 -9 14 5 13 11 -6
48 -11 24 -33 53 -47 65 -19 16 -22 23 -11 23 9 0 32 -17 51 -37 19 -21 50
-52 69 -69 19 -17 43 -43 54 -57 22 -29 45 -35 45 -12 0 24 51 19 57 -5 3 -11
16 -23 29 -26 13 -3 24 -10 24 -16 0 -5 4 -7 9 -3 5 3 19 -6 30 -21 11 -14 25
-23 31 -19 19 12 10 61 -24 141 -44 100 -95 148 -182 170 -20 5 -23 3 -18 -11
6 -14 3 -16 -17 -10 -13 4 -32 14 -41 23 -16 13 -18 13 -24 -1 -3 -9 -3 -21 1
-28 13 -19 -48 23 -87 62 -20 20 -47 39 -60 42 -13 3 -41 12 -63 21 -44 17
-115 21 -115 7 0 -5 15 -14 33 -21 69 -26 78 -30 84 -45 10 -28 -5 -28 -64 -2
-90 39 -129 48 -150 31 -24 -18 -36 -17 -29 2 4 10 -1 22 -11 30 -21 16 -79
18 -88 4z"/>
<path d="M7194 5258 c-3 -4 -12 -8 -20 -8 -8 0 -29 -10 -47 -22 -32 -20 -33
-24 -32 -77 1 -31 3 -59 4 -63 2 -13 30 -9 57 8 28 19 44 13 19 -7 -69 -57
-81 -79 -41 -79 30 0 38 -19 18 -42 -9 -11 -11 -18 -4 -18 6 0 15 6 19 14 4 8
17 15 28 17 14 3 21 14 25 38 4 31 6 33 19 18 11 -14 11 -20 1 -32 -15 -18 -7
-30 15 -22 16 7 22 57 6 57 -5 0 -11 7 -14 14 -4 10 6 23 28 36 30 19 33 24
30 63 -1 23 -3 46 -4 51 0 4 -15 6 -31 4 -42 -6 -49 10 -11 25 17 6 30 16 28
22 -4 12 -86 15 -93 3z"/>
<path d="M8005 5134 c-20 -16 -38 -23 -52 -19 -12 3 -24 1 -28 -4 -10 -18 30
-30 96 -29 47 1 75 -4 106 -20 23 -12 51 -22 61 -22 10 0 40 -11 66 -24 41
-21 56 -23 98 -17 68 11 81 26 46 55 -32 25 -35 36 -12 36 8 0 13 4 9 9 -3 6
-40 8 -88 4 -63 -4 -91 -2 -118 10 -19 8 -56 18 -84 21 -27 4 -51 11 -53 16
-5 15 -14 12 -47 -16z"/>
<path d="M8010 4930 c0 -5 24 -10 54 -10 53 0 81 -15 57 -30 -9 -5 -8 -11 4
-24 15 -15 12 -16 -44 -16 -68 0 -151 -15 -196 -35 -17 -8 -43 -18 -58 -24
-16 -6 -27 -18 -27 -30 0 -16 8 -20 50 -23 34 -2 50 1 50 9 0 18 29 43 50 43
11 0 22 -11 28 -27 12 -35 69 -92 100 -100 47 -11 95 5 128 43 21 26 36 35 47
31 24 -9 21 -36 -5 -47 l-23 -9 23 -7 c31 -9 26 -46 -8 -55 -14 -4 -56 -7 -93
-8 -43 -1 -66 -5 -62 -11 8 -13 90 -13 139 1 27 8 41 8 49 0 17 -17 38 -13 35
6 -2 13 6 19 32 23 63 11 85 40 31 40 -17 0 -33 5 -36 11 -9 14 -5 17 30 21
17 2 36 11 43 20 11 15 9 23 -15 55 -15 21 -39 47 -52 58 -46 37 -141 85 -178
89 -106 14 -153 16 -153 6z"/>
<path d="M7486 2571 c-4 -6 2 -46 14 -88 54 -199 160 -303 630 -622 138 -94
268 -147 386 -158 60 -5 65 -4 104 27 45 36 48 57 7 52 -33 -4 -37 25 -7 51
25 21 26 37 2 37 -26 0 -62 -28 -62 -49 0 -10 -7 -24 -15 -31 -8 -7 -15 -18
-15 -26 0 -45 -172 -11 -254 52 -24 18 -70 47 -102 65 -32 18 -68 37 -79 43
-41 23 -255 179 -282 207 -15 15 -33 29 -39 29 -12 0 -104 100 -156 170 -34
45 -98 171 -98 193 -1 23 -27 60 -34 48z"/>
<path d="M8388 1633 c-38 -15 -59 -43 -33 -43 8 0 15 -6 15 -13 0 -9 -12 -11
-40 -9 -33 3 -47 -1 -77 -24 -20 -16 -42 -32 -47 -36 -7 -5 -6 -12 4 -19 11
-8 8 -9 -15 -4 -25 5 -36 0 -60 -25 l-29 -30 38 0 c39 0 45 -14 13 -34 -12 -8
-24 -6 -47 7 l-31 19 -63 -64 c-80 -79 -176 -194 -176 -209 0 -8 12 -9 38 -4
44 8 77 34 62 49 -6 6 -5 15 4 25 8 9 15 21 15 26 1 6 18 11 38 12 21 0 43 3
48 4 23 7 67 -37 104 -105 22 -40 47 -78 55 -85 9 -8 16 -19 16 -25 0 -7 20
-43 45 -80 24 -38 47 -85 50 -105 3 -20 15 -53 25 -73 11 -20 20 -46 20 -56 0
-22 -33 -35 -49 -19 -19 19 -41 -12 -41 -57 0 -33 6 -47 25 -64 14 -12 25 -32
25 -43 0 -21 -1 -21 -19 -5 -19 17 -20 17 -26 -21 -21 -118 -92 -297 -141
-356 -13 -16 -24 -32 -24 -37 0 -4 -16 -32 -35 -61 -41 -62 -42 -69 -15 -69
11 0 20 5 20 10 0 7 6 7 19 0 28 -14 69 -14 53 2 -8 8 -7 20 4 47 12 29 13 40
3 59 -10 17 -10 25 0 35 9 9 13 7 17 -11 4 -12 12 -22 20 -22 23 0 24 -16 4
-53 -11 -20 -20 -39 -20 -41 0 -17 98 -25 308 -26 l243 -1 -3 183 c-1 101 1
255 6 344 7 119 6 163 -2 168 -7 4 -12 16 -12 26 0 27 -21 70 -31 64 -5 -3 -9
1 -9 8 0 10 -2 10 -9 -1 -13 -20 -33 -4 -22 17 5 9 12 43 16 75 4 31 16 68 26
81 11 13 19 27 19 31 0 4 16 30 35 59 19 29 35 57 35 62 0 5 14 22 30 38 22
20 37 26 53 22 18 -4 33 5 66 37 24 23 50 52 59 65 8 12 21 22 28 22 26 0 14
17 -48 76 -135 124 -280 214 -370 227 -29 4 -38 2 -38 -9 0 -21 -19 -17 -56
11 -51 39 -74 45 -116 28z"/>
<path d="M8815 1027 c-11 -7 -23 -16 -26 -20 -3 -5 -9 -8 -13 -8 -19 3 -26 0
-26 -11 0 -6 -7 -20 -16 -30 -22 -24 -27 -94 -8 -113 20 -19 63 -10 86 19 10
11 27 30 38 42 24 23 27 42 16 97 -7 39 -18 44 -51 24z"/>
</g>
</svg>
