<?xml version="1.0" standalone="no"?>
<!DOCTYPE svg PUBLIC "-//W3C//DTD SVG 20010904//EN"
 "http://www.w3.org/TR/2001/REC-SVG-20010904/DTD/svg10.dtd">
<svg version="1.0" xmlns="http://www.w3.org/2000/svg"
 width="340.000000pt" height="340.000000pt" viewBox="0 0 340.000000 340.000000"
 preserveAspectRatio="xMidYMid meet">
<metadata>
Created by potrace 1.16, written by Peter Selinger 2001-2019
</metadata>
<g transform="translate(0.000000,340.000000) scale(0.100000,-0.100000)"
fill="#000000" stroke="none">
<path d="M3380 3360 c0 -22 -4 -40 -10 -40 -5 0 -10 5 -10 10 0 6 -18 10 -40
10 -22 0 -40 -4 -40 -10 0 -5 7 -10 15 -10 11 0 15 -11 15 -40 0 -36 3 -40 24
-40 13 0 27 6 30 13 3 6 4 -4 3 -25 0 -20 4 -43 11 -51 10 -11 9 -17 -4 -27
-13 -12 -13 -15 -1 -22 21 -11 20 -76 -1 -87 -14 -8 -14 -13 -4 -33 8 -16 11
-53 7 -123 -3 -55 -6 -119 -5 -143 1 -70 -6 -82 -51 -82 -21 0 -39 5 -39 10 0
6 14 10 30 10 28 0 30 2 30 40 l0 40 -69 0 c-46 0 -71 -4 -74 -12 -2 -7 -2 8
1 35 l5 47 -44 0 c-58 0 -67 7 -72 55 l-4 40 -1 -47 c-1 -26 -7 -50 -12 -53
-8 -5 -7 -12 2 -22 10 -13 8 -19 -12 -35 -13 -11 -31 -17 -41 -15 -9 2 -22 -4
-30 -14 -7 -11 -17 -19 -21 -19 -13 0 -9 68 5 73 24 9 1 13 -45 9 -39 -3 -48
-8 -48 -23 0 -11 6 -19 13 -18 31 4 58 -2 52 -11 -4 -6 -12 -10 -18 -9 -42 5
-47 0 -47 -53 0 -30 6 -58 14 -67 8 -9 17 -52 21 -98 7 -80 6 -83 -14 -83 -18
0 -21 -6 -21 -40 0 -22 -4 -40 -10 -40 -5 0 -10 18 -10 40 0 22 -4 40 -10 40
-5 0 -10 14 -10 30 0 17 -4 30 -10 30 -5 0 -10 9 -10 20 0 13 7 20 20 20 11 0
20 -4 20 -10 0 -5 4 -10 8 -10 4 0 8 9 8 20 0 17 -7 20 -47 20 -42 0 -47 -3
-51 -25 -3 -14 1 -30 8 -36 8 -6 14 -22 14 -35 0 -13 5 -24 10 -24 6 0 10 -18
10 -40 0 -22 -4 -40 -10 -40 -5 0 -10 -9 -10 -20 0 -17 -7 -20 -40 -20 -33 0
-40 -3 -40 -20 0 -13 7 -19 23 -18 46 2 57 -2 57 -22 0 -17 -7 -20 -40 -20
-33 0 -40 -3 -40 -20 0 -11 -5 -20 -11 -20 -6 0 -9 -6 -6 -12 2 -7 14 -12 25
-10 17 2 22 -2 22 -18 0 -16 -5 -20 -22 -18 -11 2 -23 -3 -25 -9 -3 -7 0 -13
6 -13 7 0 11 -29 11 -80 0 -73 -2 -80 -20 -80 -18 0 -20 7 -20 60 0 53 -2 60
-20 60 -13 0 -20 7 -20 20 0 15 7 20 25 20 23 0 24 2 15 20 -8 14 -8 26 0 40
9 18 8 20 -15 20 -23 0 -24 -2 -13 -20 16 -25 1 -54 -31 -58 -17 -3 -21 -10
-21 -43 0 -32 -3 -39 -20 -39 -14 0 -20 7 -20 22 0 36 -12 12 -14 -29 -5 -67
-6 -73 -15 -73 -5 0 -12 14 -16 30 -7 33 -19 39 -29 14 -12 -31 -5 -45 29 -61
19 -9 35 -20 35 -23 0 -7 -66 -40 -80 -40 -6 0 -10 18 -10 40 0 30 -4 40 -16
40 -15 0 -16 -9 -10 -61 3 -34 6 -70 6 -80 0 -12 7 -19 20 -19 17 0 20 -7 20
-40 0 -30 4 -40 16 -40 13 0 14 -3 4 -15 -9 -11 -17 -12 -30 -5 -23 13 -41 12
-60 0 -13 -9 -13 -11 0 -20 13 -9 13 -11 0 -21 -11 -8 -12 -12 -2 -16 15 -6
16 -83 1 -83 -8 0 -8 -4 0 -14 8 -9 8 -16 2 -20 -11 -7 -34 28 -24 38 3 3 8
19 10 36 2 21 -3 32 -17 40 -11 6 -20 21 -20 33 0 18 -2 19 -10 7 -12 -19 -13
-53 -1 -46 12 8 41 -4 41 -16 0 -6 -6 -8 -14 -5 -10 4 -12 -1 -9 -16 4 -21 4
-21 -17 3 -19 22 -20 23 -11 3 6 -12 19 -27 29 -32 9 -6 14 -11 9 -11 -13 0
21 -57 38 -64 9 -3 14 -9 11 -14 -2 -4 6 -25 19 -46 12 -21 25 -34 27 -29 3 4
3 2 1 -6 -3 -14 35 -83 49 -89 4 -2 8 -10 8 -18 0 -9 5 -12 10 -9 6 3 10 1 10
-5 0 -8 -7 -9 -17 -5 -81 34 -89 17 -48 -105 19 -57 38 -106 42 -109 5 -3 8
-12 9 -18 1 -7 2 -22 3 -33 0 -11 6 -20 12 -20 5 0 8 3 6 8 -3 4 23 8 58 9
l63 3 57 -113 c31 -61 63 -119 70 -127 6 -8 39 -62 71 -120 56 -100 59 -108
59 -175 0 -75 -21 -225 -33 -236 -4 -4 -46 -9 -95 -11 -71 -2 -87 0 -87 11 0
11 -4 9 -16 -5 -11 -13 -17 -15 -20 -6 -3 6 -12 12 -19 12 -7 0 -16 -6 -19
-12 -3 -9 -8 -8 -16 5 -14 22 -30 14 -23 -12 6 -25 -34 -31 -213 -31 -101 0
-149 -4 -168 -14 -24 -12 -25 -14 -9 -22 10 -5 180 -11 378 -14 479 -8 289
-10 -1085 -15 -635 -3 -1197 -7 -1249 -10 -72 -5 -96 -3 -102 7 -7 10 -9 10
-9 1 0 -9 -17 -13 -52 -13 -38 0 -49 3 -38 10 13 9 13 10 0 10 -52 0 -60 -10
-60 -71 l0 -59 1700 0 1700 0 0 1700 c0 1127 -3 1700 -10 1700 -5 0 -10 -18
-10 -40z"/>
<path d="M1475 3155 c-44 -6 -98 -19 -120 -29 -102 -44 -214 -136 -274 -225
-20 -30 -46 -69 -58 -87 -31 -45 -74 -131 -123 -244 -23 -52 -48 -110 -57
-128 -8 -18 -18 -55 -22 -81 -5 -31 -17 -59 -34 -77 -42 -45 -75 -164 -46
-164 6 0 9 -14 7 -32 -2 -25 -12 -37 -51 -61 -32 -19 -53 -26 -65 -21 -14 6
-13 8 8 12 14 2 30 8 35 14 7 6 1 7 -18 3 -24 -6 -26 -5 -21 11 4 12 -5 7 -25
-14 -21 -23 -31 -43 -31 -65 0 -24 3 -28 10 -17 7 12 10 8 10 -14 0 -24 2 -27
15 -16 12 10 15 9 15 -7 0 -10 5 -24 11 -30 8 -8 7 -13 -2 -18 -8 -5 -10 -4
-5 3 6 11 -6 16 -19 10 -2 -2 -10 6 -18 16 -13 18 -14 18 -20 -6 -4 -15 -18
-30 -36 -38 -30 -12 -30 -12 -13 -38 9 -14 13 -23 7 -20 -5 3 -15 0 -21 -6 -9
-10 -4 -13 22 -14 113 -4 195 -74 173 -147 -1 -5 -6 -48 -9 -95 l-7 -85 38
-67 c46 -79 87 -108 152 -108 38 0 49 -4 65 -28 42 -57 98 -71 147 -34 34 24
31 32 -7 20 -24 -7 -41 -6 -63 3 l-30 13 30 4 c28 3 75 36 75 52 0 4 -11 5
-25 2 -20 -3 -24 -1 -19 12 3 9 2 16 -4 16 -5 0 -12 -7 -16 -15 -3 -8 -10 -15
-16 -15 -15 0 -12 37 6 76 l16 34 18 -32 c19 -36 40 -48 40 -24 0 9 4 16 8 16
4 0 13 15 20 33 6 17 22 43 35 57 13 14 21 32 19 39 -5 15 7 14 133 -9 33 -6
108 -10 166 -9 58 1 111 -1 118 -6 9 -5 11 -20 8 -42 -6 -33 -5 -34 12 -19 16
15 19 14 40 -5 30 -29 15 -42 -51 -45 -116 -7 -145 -23 -127 -71 12 -31 33
-30 25 1 -6 25 11 47 23 29 3 -6 33 -25 66 -43 33 -18 74 -45 90 -60 45 -41
71 -51 134 -53 98 -3 161 58 161 156 0 24 -7 60 -15 80 -11 27 -12 42 -4 66 9
25 8 40 -5 71 -22 55 -21 61 14 58 17 -1 30 -6 30 -10 0 -4 13 -8 30 -8 24 0
32 7 46 35 20 43 49 62 70 44 11 -9 14 -8 14 4 0 37 -14 77 -26 77 -10 0 -13
-7 -8 -25 10 -41 -12 -28 -24 14 -15 48 -15 71 -1 71 6 0 9 10 8 23 -2 12 3
32 9 44 11 20 10 22 -4 16 -11 -4 -15 -3 -10 5 6 11 20 110 19 147 0 11 -1 52
-3 90 -2 39 0 79 3 90 4 11 0 54 -7 95 -9 45 -11 76 -5 78 15 6 10 22 -6 22
-8 0 -15 7 -15 16 0 8 4 12 10 9 10 -6 3 21 -10 40 -6 9 -21 134 -24 208 0 15
-4 27 -7 27 -13 0 -37 128 -37 192 0 64 -13 116 -37 146 -28 35 -62 63 -85 69
-14 3 -28 11 -32 16 -4 6 -12 4 -22 -5 -11 -12 -25 -14 -58 -8 -24 5 -46 6
-51 3 -4 -2 -14 0 -21 6 -14 12 -123 42 -146 40 -8 -1 -51 -7 -95 -14z m208
-609 c3 -7 1 -18 -5 -24 -6 -6 -8 -22 -4 -37 8 -31 66 -96 66 -73 0 11 12 15
50 14 27 -1 50 -5 50 -9 0 -5 9 -20 19 -33 23 -29 20 -44 -39 -189 -41 -102
-82 -179 -101 -191 -8 -4 -8 -1 -1 12 5 11 10 81 10 156 2 133 1 138 -23 165
l-25 28 7 -35 6 -35 -26 18 c-14 9 -35 17 -47 17 -11 0 -20 6 -20 13 0 7 -3 8
-8 2 -10 -14 -74 -16 -69 -2 2 7 16 11 31 10 16 -1 26 3 26 12 0 7 9 17 20 20
34 11 24 42 -17 54 -25 7 -28 9 -10 7 27 -3 38 9 15 17 -7 2 -3 2 9 0 15 -2
26 4 33 17 9 17 8 20 -10 20 -22 0 -23 1 -14 23 3 8 13 13 23 10 11 -3 21 2
24 11 8 20 23 21 30 2z m-363 -66 c0 -5 7 -10 15 -10 9 0 18 -7 21 -15 4 -8
14 -15 23 -15 30 0 71 -25 71 -43 0 -10 4 -16 9 -12 14 8 21 -9 10 -25 -6 -10
-9 -11 -9 -2 0 6 -4 12 -9 12 -5 0 -7 -10 -3 -22 3 -14 2 -19 -6 -14 -7 4 -12
1 -12 -7 0 -8 -9 -26 -20 -40 -11 -14 -23 -40 -26 -59 -4 -18 -15 -51 -25 -72
-11 -22 -19 -46 -19 -53 0 -11 -7 -10 -30 4 -16 9 -31 22 -31 28 -1 5 -3 17
-4 25 0 8 -7 28 -13 43 -9 21 -9 34 -1 49 6 12 9 59 7 117 -3 77 0 98 12 108
18 15 40 17 40 3z"/>
<path d="M0 1814 c0 -67 2 -74 20 -74 11 0 20 -4 20 -10 0 -5 -9 -10 -19 -10
-19 0 -20 -11 -20 -320 0 -185 3 -322 9 -325 5 -3 7 -11 5 -18 -3 -7 -1 -19 5
-27 7 -12 12 -12 22 -2 20 20 27 14 34 -29 4 -22 10 -37 15 -32 16 17 151 386
153 420 0 11 4 19 7 17 13 -8 19 47 9 69 -10 20 -10 21 3 4 14 -17 17 -14 38
30 13 26 23 51 21 56 -1 4 2 7 8 7 5 0 10 6 10 13 0 7 11 28 25 47 14 18 23
35 21 37 -8 9 -46 -32 -46 -49 0 -9 -4 -19 -9 -22 -5 -4 -7 11 -4 34 6 39 -9
56 -21 25 -3 -8 -11 -15 -18 -15 -10 0 -12 20 -10 80 2 44 8 80 13 80 5 0 9
18 9 40 0 33 -3 40 -20 40 -17 0 -20 -7 -20 -40 0 -46 -25 -57 -36 -15 -6 24
-24 35 -24 15 0 -21 -18 -9 -24 15 -6 23 -8 24 -21 11 -8 -8 -15 -19 -15 -25
0 -6 -14 -11 -31 -11 -28 0 -31 -3 -25 -22 7 -30 -4 -128 -15 -128 -5 0 -9 14
-9 30 0 17 -4 30 -10 30 -6 0 -10 30 -10 69 0 60 -2 69 -20 74 -19 5 -20 0
-20 -69z"/>
<path d="M2165 965 c3 -55 7 -170 10 -255 3 -85 11 -183 17 -217 10 -60 12
-63 39 -63 15 0 31 -4 34 -10 3 -5 11 -10 17 -10 7 0 7 5 -1 14 -9 11 -5 19
19 40 18 14 37 26 45 26 7 0 15 12 18 26 3 18 1 22 -6 15 -16 -16 -30 -13 -23
4 3 8 1 15 -4 15 -6 0 -10 11 -10 24 0 13 -4 26 -8 28 -16 6 -95 224 -109 302
-9 45 -19 90 -24 101 -4 11 -10 29 -13 40 -2 11 -3 -25 -1 -80z"/>
<path d="M1530 601 c-25 -9 -59 -27 -75 -40 -27 -21 -30 -21 -34 -5 -3 19 -31
51 -31 37 0 -5 5 -14 12 -21 9 -9 7 -19 -11 -43 -12 -17 -20 -33 -17 -36 10
-11 -119 -93 -146 -93 -41 0 -71 -50 -76 -126 -4 -53 -1 -67 19 -93 22 -30 26
-31 95 -31 40 0 76 4 79 10 3 5 11 10 16 10 6 0 8 -4 5 -9 -3 -5 161 -9 373
-10 257 -2 381 1 386 8 3 6 17 11 30 11 14 0 43 7 65 16 38 15 40 18 39 58 0
38 -5 45 -61 91 -55 46 -65 50 -112 50 -28 0 -52 -4 -53 -10 -2 -5 3 -11 10
-11 6 -1 17 -2 23 -3 6 0 24 -13 39 -28 20 -20 26 -23 22 -10 -6 15 -2 18 16
15 18 -2 23 -10 25 -41 3 -31 -2 -43 -28 -68 -21 -22 -37 -30 -51 -26 -12 3
-32 2 -45 -3 -17 -7 -27 -5 -38 5 -8 8 -21 15 -29 15 -8 0 -20 7 -27 15 -7 8
-22 15 -34 16 -11 0 -15 3 -8 6 6 2 12 9 12 14 0 6 -4 8 -9 5 -4 -3 -19 6 -32
21 -16 18 -20 27 -11 30 6 3 12 8 12 13 0 14 -248 90 -304 92 -66 3 -55 15 44
46 36 12 56 21 45 21 -41 2 -151 -27 -188 -49 -20 -12 -43 -20 -51 -17 -7 3
-18 1 -24 -5 -6 -6 -12 -6 -16 1 -4 5 -14 7 -24 4 -15 -6 -15 -5 -2 8 25 24
68 49 85 49 8 0 15 5 15 10 0 6 20 20 45 32 25 12 45 28 45 35 0 7 3 13 8 13
4 0 18 9 32 20 23 18 23 19 5 18 -11 0 -40 -8 -65 -17z m-7 -199 c13 -14 14
-21 5 -30 -9 -9 -4 -9 23 -1 103 33 104 33 145 13 21 -10 38 -23 37 -29 -2 -5
-26 -11 -55 -13 -29 -2 -58 -8 -65 -13 -7 -6 -17 -8 -22 -5 -5 4 -13 2 -16 -4
-5 -8 -11 -8 -20 0 -8 7 -19 9 -24 6 -5 -4 -12 -2 -16 4 -3 5 -11 10 -17 10
-7 0 -6 -6 2 -15 15 -18 14 -18 -28 -6 -20 6 -32 6 -32 0 0 -5 7 -9 15 -9 30
0 14 -27 -27 -46 -44 -20 -49 -21 -85 -23 -16 -1 -21 -6 -17 -16 6 -15 -5 -20
-35 -16 -7 2 -11 -2 -8 -6 3 -5 -20 -9 -51 -9 -55 1 -57 2 -60 30 -3 20 0 26
9 21 9 -6 11 -2 7 13 -4 16 -2 22 9 22 8 0 13 6 10 13 -2 7 6 18 19 24 13 6
24 7 24 2 0 -5 7 -9 15 -9 9 0 12 6 8 17 -5 12 -2 15 10 10 9 -3 23 0 31 9 13
13 16 12 26 -3 7 -12 10 -13 7 -3 -3 10 17 25 62 47 78 37 92 39 114 15z"/>
</g>
</svg>
