<?xml version="1.0" standalone="no"?>
<!DOCTYPE svg PUBLIC "-//W3C//DTD SVG 20010904//EN"
 "http://www.w3.org/TR/2001/REC-SVG-20010904/DTD/svg10.dtd">
<svg version="1.0" xmlns="http://www.w3.org/2000/svg"
 width="266.000000pt" height="189.000000pt" viewBox="0 0 266.000000 189.000000"
 preserveAspectRatio="xMidYMid meet">

<g transform="translate(0.000000,189.000000) scale(0.100000,-0.100000)"
fill="#000000" stroke="none">
<path d="M1181 1653 c0 -11 3 -13 6 -5 6 16 33 16 33 -1 0 -8 -9 -22 -20 -32
-28 -26 -25 -35 13 -34 25 1 27 3 9 6 l-24 5 22 23 c27 29 20 55 -15 55 -17 0
-25 -5 -24 -17z"/>
<path d="M1262 1658 c-16 -16 -15 -53 2 -68 36 -29 92 13 75 58 -9 25 -56 31
-77 10z m62 -20 c13 -22 -14 -54 -38 -45 -16 6 -22 48 -9 61 11 11 35 3 47
-16z"/>
<path d="M1360 1653 c0 -13 3 -14 12 -5 7 7 16 12 20 12 15 0 8 -27 -12 -45
-28 -26 -25 -35 13 -34 25 1 27 3 9 6 l-24 5 22 23 c27 29 20 55 -15 55 -17 0
-25 -5 -25 -17z"/>
<path d="M1440 1655 c-15 -18 -5 -64 15 -72 45 -17 87 26 65 67 -13 24 -61 27
-80 5z m64 -17 c14 -22 -12 -52 -37 -42 -17 6 -23 44 -10 58 11 11 35 3 47
-16z"/>
<path d="M1781 1536 c-9 -10 -9 -16 -1 -21 6 -4 8 -15 5 -26 -7 -21 5 -25 23
-7 16 16 15 43 -2 57 -10 8 -16 8 -25 -3z"/>
<path d="M880 1525 c0 -8 9 -15 20 -15 18 0 20 -7 20 -65 0 -58 2 -65 20 -65
18 0 20 7 20 65 0 58 2 65 20 65 11 0 20 7 20 15 0 12 -13 15 -60 15 -47 0
-60 -3 -60 -15z"/>
<path d="M1430 1459 c0 -71 2 -80 18 -77 14 3 17 16 20 81 3 72 1 77 -18 77
-18 0 -20 -6 -20 -81z"/>
<path d="M995 1492 c-3 -3 -5 -30 -5 -59 0 -46 3 -54 18 -51 12 2 18 14 20 41
2 24 8 37 18 37 8 0 14 8 14 18 0 14 -8 19 -30 19 -16 0 -32 -3 -35 -5z"/>
<path d="M1079 1479 c-23 -23 -24 -47 -4 -76 12 -18 25 -22 60 -21 l45 1 0 56
0 57 -41 1 c-28 1 -46 -4 -60 -18z m66 -39 c0 -16 -6 -26 -18 -28 -19 -4 -32
20 -23 44 9 25 41 13 41 -16z"/>
<path d="M1200 1487 c0 -7 7 -34 16 -60 11 -33 21 -47 34 -47 13 0 23 14 34
47 20 58 20 73 1 73 -9 0 -18 -12 -21 -30 -4 -16 -10 -30 -14 -30 -4 0 -10 14
-13 30 -6 30 -37 44 -37 17z"/>
<path d="M1325 1486 c-21 -15 -25 -67 -5 -90 13 -17 57 -21 78 -7 7 4 16 23
18 40 9 57 -45 91 -91 57z m52 -22 c-3 -3 -12 -4 -19 -1 -8 3 -5 6 6 6 11 1
17 -2 13 -5z m8 -44 c-3 -5 -12 -10 -20 -10 -8 0 -17 5 -20 10 -4 6 5 10 20
10 15 0 24 -4 20 -10z"/>
<path d="M1497 1482 c-34 -37 -12 -102 34 -102 39 0 59 19 59 55 0 59 -57 87
-93 47z m56 -19 c-7 -2 -19 -2 -25 0 -7 3 -2 5 12 5 14 0 19 -2 13 -5z m2 -43
c-3 -5 -12 -10 -20 -10 -8 0 -17 5 -20 10 -4 6 5 10 20 10 15 0 24 -4 20 -10z"/>
<path d="M1607 1491 c-1 -3 -2 -28 -2 -56 1 -39 4 -51 18 -53 14 -3 17 4 17
37 0 30 4 41 15 41 8 0 15 8 15 18 0 14 -8 19 -30 19 -17 0 -32 -3 -33 -6z"/>
<path d="M1690 1485 c-16 -20 -6 -43 25 -55 34 -13 32 -21 -5 -13 -16 3 -30 1
-30 -4 0 -16 23 -33 45 -33 47 0 62 54 20 70 -14 5 -25 11 -25 13 0 2 11 2 25
-1 27 -5 32 7 13 26 -17 17 -53 15 -68 -3z"/>
<path d="M1415 1341 c-8 -15 3 -31 21 -31 9 0 14 7 12 17 -4 20 -24 28 -33 14z"/>
<path d="M1022 1317 c-50 -53 -13 -137 60 -137 34 0 68 24 68 48 0 17 -25 15
-40 -3 -19 -22 -48 -18 -66 10 -15 23 -15 27 0 50 18 28 47 32 66 10 15 -19
40 -20 40 -2 0 47 -91 63 -128 24z"/>
<path d="M1170 1260 c0 -64 3 -80 15 -80 11 0 15 11 15 39 0 24 5 41 14 44 20
8 26 -2 26 -45 0 -27 4 -38 15 -38 11 0 15 12 15 49 0 54 -17 77 -50 66 -17
-5 -20 -2 -20 19 0 16 -6 26 -15 26 -12 0 -15 -16 -15 -80z"/>
<path d="M1690 1319 c0 -5 5 -7 10 -4 6 3 10 2 10 -4 0 -6 7 -8 15 -5 23 9 18
19 -10 22 -14 1 -25 -3 -25 -9z"/>
<path d="M1305 1275 c-29 -28 -31 -42 -9 -73 30 -44 114 -18 114 36 0 18 -46
62 -65 62 -9 0 -27 -11 -40 -25z m63 -37 c-2 -15 -10 -23 -23 -23 -13 0 -21 8
-23 23 -3 18 1 22 23 22 22 0 26 -4 23 -22z"/>
<path d="M1500 1293 c-22 -8 -40 -34 -40 -58 0 -51 87 -77 111 -34 10 20 9 21
-30 14 -39 -7 -41 -6 -41 20 0 26 2 26 40 20 45 -8 53 5 18 29 -23 17 -33 18
-58 9z"/>
<path d="M1605 1275 c-29 -28 -31 -42 -9 -73 21 -30 79 -31 95 -1 10 20 9 21
-30 14 -27 -4 -41 -3 -41 4 0 6 18 11 40 11 46 0 53 17 20 50 -26 26 -46 25
-75 -5z m55 -15 c0 -5 -9 -10 -21 -10 -11 0 -17 5 -14 10 3 6 13 10 21 10 8 0
14 -4 14 -10z"/>
<path d="M1420 1235 c0 -42 3 -55 15 -55 12 0 15 13 15 55 0 42 -3 55 -15 55
-12 0 -15 -13 -15 -55z"/>
<path d="M1280 1136 c-72 -16 -113 -38 -164 -89 -89 -89 -120 -233 -76 -349
28 -75 96 -150 168 -185 49 -24 69 -28 142 -28 73 0 93 4 141 28 112 54 180
155 187 278 10 174 -94 310 -262 346 -71 15 -65 15 -136 -1z m197 -62 c179
-86 219 -328 76 -470 -55 -56 -114 -79 -203 -79 -58 0 -85 5 -121 23 -173 85
-224 309 -103 451 91 106 226 135 351 75z"/>
<path d="M1263 947 c-17 -6 -35 -15 -39 -19 -4 -5 -30 -8 -57 -8 -49 0 -50 0
-32 -20 17 -18 17 -21 0 -56 -37 -78 13 -164 96 -164 22 0 49 5 60 11 16 8 25
7 40 -7 18 -16 20 -16 38 0 15 14 24 15 40 7 11 -6 38 -11 60 -11 84 0 138 96
95 169 -17 29 -17 31 1 51 18 20 18 20 -27 20 -25 0 -60 8 -79 17 -42 21 -152
27 -196 10z m150 -36 c17 -6 16 -8 -6 -20 -14 -7 -31 -24 -38 -37 -7 -13 -15
-24 -19 -24 -4 0 -12 11 -19 24 -7 13 -24 30 -38 37 -22 12 -23 14 -6 20 10 4
38 8 63 8 25 0 53 -4 63 -8z m-120 -73 c40 -48 7 -118 -57 -118 -37 0 -61 17
-71 51 -24 75 76 128 128 67z m206 17 c71 -36 45 -135 -34 -135 -98 0 -99 142
-2 149 4 1 21 -6 36 -14z"/>
<path d="M1200 810 c-15 -28 4 -60 36 -60 31 0 54 41 34 65 -18 21 -57 19 -70
-5z"/>
<path d="M1430 815 c-10 -12 -10 -21 -2 -40 14 -31 56 -34 72 -5 24 44 -38 83
-70 45z"/>
<path d="M800 1031 c0 -59 87 -201 122 -201 27 0 -29 141 -74 188 -37 37 -48
40 -48 13z"/>
<path d="M1852 1018 c-46 -48 -101 -188 -73 -188 36 0 121 140 121 200 0 28
-11 25 -48 -12z"/>
<path d="M930 938 c0 -57 33 -138 59 -146 34 -11 -12 170 -49 193 -6 4 -10
-14 -10 -47z"/>
<path d="M1738 950 c-32 -53 -51 -166 -27 -158 8 2 24 25 37 50 17 35 22 59
20 99 l-3 54 -27 -45z"/>
<path d="M775 889 c25 -87 101 -189 140 -189 12 0 11 7 -2 46 -20 58 -68 122
-112 148 l-33 19 7 -24z"/>
<path d="M1883 881 c-44 -32 -75 -76 -98 -140 -13 -37 -13 -41 2 -41 28 0 100
85 122 145 12 32 20 59 18 61 -2 2 -22 -9 -44 -25z"/>
<path d="M910 800 c0 -38 90 -150 121 -150 26 0 -26 95 -72 135 -32 27 -49 32
-49 15z"/>
<path d="M1740 784 c-31 -27 -86 -121 -76 -131 7 -7 56 24 74 46 7 9 21 33 32
53 34 64 23 76 -30 32z"/>
<path d="M750 753 c0 -6 16 -31 35 -56 39 -51 113 -100 144 -95 18 3 17 7 -14
50 -19 26 -52 59 -72 72 -43 28 -93 43 -93 29z"/>
<path d="M1885 739 c-50 -26 -80 -54 -107 -97 -23 -37 -19 -47 15 -38 37 9 99
59 135 109 28 40 31 47 15 47 -10 0 -36 -9 -58 -21z"/>
<path d="M930 671 c0 -17 80 -99 109 -111 47 -19 54 -8 22 35 -38 52 -131 106
-131 76z"/>
<path d="M1702 652 c-47 -31 -99 -95 -82 -100 22 -8 70 21 110 64 62 68 48 87
-28 36z"/>
<path d="M829 576 c39 -47 197 -93 210 -61 8 19 -98 67 -162 73 -58 5 -61 4
-48 -12z"/>
<path d="M1759 576 c-49 -17 -104 -50 -104 -62 0 -5 18 -10 39 -12 29 -3 58 6
113 33 40 20 73 40 73 46 0 13 -79 10 -121 -5z"/>
<path d="M1060 532 c0 -15 81 -52 114 -52 16 0 25 4 21 10 -17 27 -135 64
-135 42z"/>
<path d="M1566 525 c-21 -7 -46 -21 -55 -29 -14 -15 -13 -16 14 -16 36 0 115
35 115 50 0 14 -27 12 -74 -5z"/>
<path d="M960 473 l-35 -16 40 -13 c22 -7 68 -13 102 -13 105 -2 124 19 41 44
-65 19 -103 19 -148 -2z"/>
<path d="M1588 474 c-79 -24 -58 -45 45 -43 34 0 80 6 102 13 l40 13 -37 17
c-45 19 -87 19 -150 0z"/>
<path d="M1205 460 c-18 -7 -18 -8 8 -15 32 -9 97 2 97 15 0 12 -77 12 -105 0z"/>
<path d="M1337 464 c-14 -15 -6 -34 14 -34 14 0 19 5 17 17 -3 18 -20 27 -31
17z"/>
<path d="M1390 460 c0 -13 65 -24 97 -15 26 7 26 8 8 15 -28 12 -105 12 -105
0z"/>
<path d="M877 383 c-13 -12 -7 -23 13 -23 18 0 20 -7 20 -55 0 -42 3 -55 15
-55 11 0 15 13 15 54 0 46 3 54 21 59 34 9 11 27 -35 27 -23 0 -46 -3 -49 -7z"/>
<path d="M1030 376 c0 -9 7 -16 16 -16 17 0 14 22 -4 28 -7 2 -12 -3 -12 -12z"/>
<path d="M1390 370 c0 -15 -7 -20 -28 -20 -35 0 -52 -16 -52 -50 0 -36 17 -50
62 -50 l38 0 0 70 c0 40 -4 70 -10 70 -5 0 -10 -9 -10 -20z m-10 -56 c11 -12
10 -18 -3 -32 -16 -15 -18 -15 -34 0 -13 14 -14 20 -3 32 7 9 16 16 20 16 4 0
13 -7 20 -16z"/>
<path d="M1530 375 c0 -8 7 -15 15 -15 8 0 15 7 15 15 0 8 -7 15 -15 15 -8 0
-15 -7 -15 -15z"/>
<path d="M960 300 c0 -38 4 -50 15 -50 10 0 15 11 15 35 0 24 5 35 15 35 8 0
15 7 15 15 0 10 -10 15 -30 15 -29 0 -30 -1 -30 -50z"/>
<path d="M1030 300 c0 -38 4 -50 15 -50 11 0 15 12 15 50 0 38 -4 50 -15 50
-11 0 -15 -12 -15 -50z"/>
<path d="M1070 285 c0 -51 3 -65 15 -65 8 0 15 7 15 15 0 10 10 15 30 15 19 0
33 7 40 19 24 47 -1 81 -61 81 l-39 0 0 -65z m80 15 c0 -19 -25 -34 -41 -24
-13 8 -11 42 4 47 20 7 37 -4 37 -23z"/>
<path d="M1202 338 c-15 -15 -15 -61 0 -76 7 -7 31 -12 55 -12 l43 0 0 50 0
50 -43 0 c-24 0 -48 -5 -55 -12z m56 -54 c-19 -19 -38 -11 -38 16 0 24 21 31
40 14 12 -12 12 -16 -2 -30z"/>
<path d="M1438 300 c20 -64 43 -66 66 -7 19 52 20 57 2 57 -7 0 -18 -15 -23
-32 -10 -33 -12 -32 -28 17 -2 8 -11 15 -19 15 -12 0 -12 -7 2 -50z"/>
<path d="M1530 300 c0 -38 4 -50 15 -50 11 0 15 12 15 50 0 38 -4 50 -15 50
-11 0 -15 -12 -15 -50z"/>
<path d="M1574 335 c-7 -18 12 -45 32 -45 8 0 14 -5 14 -10 0 -6 -11 -8 -26
-4 -20 5 -25 3 -22 -7 3 -8 19 -14 39 -14 28 0 35 4 37 22 3 17 -3 26 -22 33
-33 12 -34 22 -1 14 20 -5 24 -3 19 10 -8 21 -63 21 -70 1z"/>
<path d="M1672 338 c-7 -7 -12 -24 -12 -38 0 -33 17 -50 50 -50 33 0 50 17 50
50 0 33 -17 50 -50 50 -14 0 -31 -5 -38 -12z m58 -38 c0 -27 -19 -35 -38 -17
-12 13 -13 19 -3 31 16 19 41 10 41 -14z"/>
<path d="M1770 300 c0 -38 4 -50 15 -50 10 0 15 11 15 35 0 24 5 35 15 35 8 0
15 7 15 15 0 10 -10 15 -30 15 -29 0 -30 -1 -30 -50z"/>
</g>
</svg>
