<?xml version="1.0" standalone="no"?>
<!DOCTYPE svg PUBLIC "-//W3C//DTD SVG 20010904//EN"
 "http://www.w3.org/TR/2001/REC-SVG-20010904/DTD/svg10.dtd">
<svg version="1.0" xmlns="http://www.w3.org/2000/svg"
 width="231.000000pt" height="218.000000pt" viewBox="0 0 231.000000 218.000000"
 preserveAspectRatio="xMidYMid meet">

<g transform="translate(0.000000,218.000000) scale(0.100000,-0.100000)"
fill="#000000" stroke="none">
<path d="M1684 2075 c-4 -9 -2 -21 4 -27 9 -9 8 -15 0 -26 -10 -12 -9 -14 6
-11 28 6 43 35 30 56 -15 24 -33 27 -40 8z"/>
<path d="M586 2065 c-4 -11 2 -15 24 -15 l29 0 3 -77 c2 -61 6 -78 18 -78 12
0 16 17 18 78 3 74 4 77 27 77 16 0 25 6 25 15 0 22 -135 22 -144 0z"/>
<path d="M1260 1984 c0 -86 2 -95 18 -92 14 3 17 17 20 96 3 87 2 92 -18 92
-19 0 -20 -6 -20 -96z"/>
<path d="M723 2014 c-2 -6 -3 -36 -1 -65 2 -40 7 -54 18 -54 11 0 16 13 18 46
2 37 7 48 23 52 10 3 19 12 19 20 0 18 -70 19 -77 1z"/>
<path d="M830 2010 c-11 -11 -20 -33 -20 -50 0 -47 30 -70 90 -67 l50 2 0 65
0 65 -50 2 c-39 2 -55 -2 -70 -17z m71 -20 c23 -13 24 -33 3 -54 -12 -12 -20
-13 -35 -6 -30 17 -24 61 9 69 2 1 12 -4 23 -9z"/>
<path d="M971 2023 c0 -5 10 -35 22 -68 17 -46 27 -60 42 -60 15 0 25 14 42
60 27 75 27 75 3 75 -14 0 -22 -11 -31 -42 l-12 -43 -13 30 c-7 17 -13 36 -14
43 0 6 -9 12 -20 12 -11 0 -20 -3 -19 -7z"/>
<path d="M1121 2004 c-27 -35 -26 -59 4 -89 30 -31 68 -32 97 -3 26 26 9 37
-28 17 -21 -11 -27 -10 -41 4 -16 16 -14 17 35 17 43 0 52 3 52 18 0 61 -80
85 -119 36z m79 -14 c0 -5 -11 -10 -25 -10 -14 0 -25 5 -25 10 0 6 11 10 25
10 14 0 25 -4 25 -10z"/>
<path d="M1335 2005 c-14 -13 -25 -33 -25 -45 0 -29 44 -70 75 -70 29 0 77 41
56 48 -7 2 -24 -2 -37 -9 -21 -11 -27 -10 -41 4 -16 16 -14 17 35 17 45 0 52
3 52 20 0 28 -35 60 -65 60 -14 0 -37 -11 -50 -25z m75 -15 c0 -5 -11 -10 -25
-10 -14 0 -25 5 -25 10 0 6 11 10 25 10 14 0 25 -4 25 -10z"/>
<path d="M1473 2014 c-2 -6 -3 -36 -1 -65 2 -42 7 -55 21 -57 14 -3 17 4 17
46 0 41 3 51 20 55 11 3 20 12 20 20 0 18 -70 19 -77 1z"/>
<path d="M1580 2015 c-18 -21 -8 -48 23 -63 15 -7 27 -17 27 -23 0 -12 -17
-12 -25 1 -10 17 -37 11 -33 -6 8 -41 81 -44 91 -3 7 26 -1 49 -17 49 -7 0
-21 7 -32 15 -18 15 -17 16 14 10 33 -7 41 2 20 23 -16 16 -53 15 -68 -3z"/>
<path d="M1243 1834 c-7 -19 11 -39 26 -30 16 10 13 33 -4 40 -9 3 -18 -1 -22
-10z"/>
<path d="M759 1811 c-31 -32 -38 -75 -17 -114 18 -34 40 -46 83 -47 46 0 80
19 88 50 7 27 -15 26 -53 -2 -25 -18 -34 -20 -54 -10 -47 21 -46 95 1 113 22
8 32 6 54 -11 33 -24 49 -26 49 -5 0 27 -42 55 -83 55 -29 0 -45 -7 -68 -29z"/>
<path d="M940 1745 c0 -78 3 -95 15 -95 10 0 15 10 15 34 0 19 3 41 6 50 7 19
44 22 45 4 0 -7 1 -29 2 -48 2 -24 7 -36 20 -38 15 -3 17 5 17 58 0 56 -2 61
-26 70 -17 7 -32 7 -45 0 -17 -10 -19 -7 -19 25 0 24 -4 35 -15 35 -12 0 -15
-17 -15 -95z"/>
<path d="M1105 1765 c-14 -13 -25 -36 -25 -50 0 -30 41 -75 68 -75 35 0 72 38
72 73 0 38 -7 50 -37 66 -33 17 -51 14 -78 -14z m75 -36 c14 -26 -4 -51 -34
-47 -21 3 -32 28 -22 54 8 21 44 17 56 -7z"/>
<path d="M1489 1779 c-56 -21 -58 -102 -4 -127 28 -13 80 1 89 23 7 19 -17 25
-38 9 -14 -9 -24 -10 -38 -3 -29 15 -12 29 38 29 35 0 44 3 44 18 0 9 -4 22
-8 28 -7 10 -47 35 -54 33 -2 0 -15 -5 -29 -10z m48 -36 c3 -9 -4 -12 -21 -11
-26 2 -32 9 -19 22 10 10 36 3 40 -11z"/>
<path d="M1240 1715 c0 -58 2 -65 20 -65 18 0 20 7 20 65 0 58 -2 65 -20 65
-18 0 -20 -7 -20 -65z"/>
<path d="M1316 1765 c-19 -19 -21 -73 -3 -96 26 -35 99 -31 113 6 10 24 -3 30
-32 15 -30 -16 -59 -4 -59 25 0 29 29 41 59 25 30 -16 45 -7 30 18 -15 24 -86
28 -108 7z"/>
<path d="M1046 1581 c-168 -56 -277 -206 -277 -382 0 -168 82 -294 239 -367
51 -24 69 -27 162 -27 100 0 109 2 174 34 84 41 146 104 189 191 30 60 32 72
32 165 -1 124 -23 186 -96 268 -74 83 -172 130 -282 134 -61 2 -97 -2 -141
-16z m258 -52 c74 -27 157 -107 193 -186 23 -48 27 -72 28 -143 0 -73 -4 -94
-28 -145 -36 -76 -95 -138 -172 -178 -55 -28 -68 -31 -155 -32 -84 0 -102 3
-151 27 -234 115 -281 418 -91 590 105 95 239 119 376 67z"/>
<path d="M1110 1371 c-20 -4 -56 -17 -81 -29 -25 -12 -64 -22 -89 -22 -41 0
-42 -1 -27 -18 22 -24 21 -28 -3 -59 -27 -34 -27 -107 0 -151 36 -59 126 -80
186 -43 31 19 32 19 53 -2 l21 -21 21 20 c20 21 20 21 60 1 70 -34 147 -9 183
61 22 42 20 77 -5 129 -20 42 -21 45 -4 63 18 20 17 20 -24 20 -23 0 -58 8
-79 19 -38 19 -129 42 -160 40 -9 -1 -33 -4 -52 -8z m139 -50 c10 -7 4 -17
-28 -46 -22 -21 -41 -44 -41 -51 0 -21 -18 -17 -25 6 -3 11 -24 35 -46 54 -34
29 -38 35 -22 39 32 8 148 7 162 -2z m-183 -66 c92 -38 65 -175 -36 -175 -46
0 -76 21 -90 64 -16 49 10 101 60 119 23 9 28 8 66 -8z m279 1 c39 -17 55 -42
55 -87 0 -67 -80 -111 -141 -79 -22 12 -49 60 -49 88 0 35 54 88 93 91 4 1 23
-5 42 -13z"/>
<path d="M996 1204 c-23 -23 -20 -51 8 -69 46 -31 97 25 60 66 -21 23 -47 24
-68 3z"/>
<path d="M1276 1204 c-23 -23 -20 -51 8 -69 45 -30 91 16 61 61 -18 28 -47 31
-69 8z"/>
<path d="M503 1451 c8 -62 61 -164 105 -202 30 -27 38 -30 40 -16 10 53 -59
188 -122 238 l-29 23 6 -43z"/>
<path d="M1792 1452 c-46 -42 -87 -123 -98 -191 -7 -41 -6 -43 13 -32 51 27
116 138 129 221 4 22 4 40 2 40 -3 0 -23 -17 -46 -38z"/>
<path d="M1646 1368 c-39 -69 -63 -198 -36 -198 5 0 21 21 36 46 21 35 28 64
32 120 2 41 2 74 -1 74 -4 0 -17 -19 -31 -42z"/>
<path d="M656 1353 c6 -72 23 -127 49 -159 l24 -29 1 56 c0 62 -13 110 -42
152 -28 39 -37 33 -32 -20z"/>
<path d="M470 1293 c0 -60 107 -212 159 -226 19 -5 21 -2 15 16 -26 91 -90
184 -145 213 -27 13 -29 13 -29 -3z"/>
<path d="M1835 1291 c-61 -37 -118 -120 -138 -203 -20 -80 117 55 153 151 12
34 21 64 18 66 -2 2 -17 -4 -33 -14z"/>
<path d="M630 1189 c0 -6 14 -38 32 -72 35 -65 110 -132 116 -104 4 20 -29 85
-64 126 -30 36 -84 68 -84 50z"/>
<path d="M1636 1150 c-51 -47 -96 -140 -68 -140 34 1 97 72 127 143 14 33 14
37 0 37 -9 0 -35 -18 -59 -40z"/>
<path d="M440 1122 c0 -17 58 -89 101 -125 40 -35 114 -65 126 -53 3 3 -2 17
-11 30 -37 57 -83 99 -137 127 -61 30 -79 35 -79 21z"/>
<path d="M1825 1106 c-48 -23 -103 -73 -139 -126 -21 -31 -20 -40 2 -40 37 1
118 57 164 115 68 84 63 94 -27 51z"/>
<path d="M666 1010 c38 -65 150 -147 172 -125 3 3 -8 24 -24 47 -29 42 -95 89
-143 103 l-23 7 18 -32z"/>
<path d="M1635 1021 c-52 -23 -98 -63 -124 -106 -17 -29 -18 -35 -5 -35 24 0
87 36 115 67 32 34 63 82 58 88 -3 2 -22 -4 -44 -14z"/>
<path d="M541 904 c25 -30 132 -76 190 -81 75 -7 83 9 22 47 -58 37 -102 50
-172 50 -48 0 -52 -2 -40 -16z"/>
<path d="M1625 892 c-61 -29 -93 -56 -78 -65 5 -3 31 -4 59 -3 54 3 142 39
184 74 l25 21 -65 1 c-51 0 -78 -6 -125 -28z"/>
<path d="M820 851 c0 -15 100 -52 133 -49 32 4 32 4 -23 31 -54 26 -110 36
-110 18z"/>
<path d="M1410 833 c-52 -26 -54 -27 -26 -31 33 -4 108 22 126 44 21 24 -38
17 -100 -13z"/>
<path d="M690 784 l-35 -16 39 -14 c59 -21 155 -28 206 -14 l45 12 -40 21
c-54 27 -167 34 -215 11z"/>
<path d="M1455 782 c-27 -9 -49 -21 -48 -27 6 -27 133 -29 226 -4 45 12 47 24
6 38 -46 16 -126 13 -184 -7z"/>
<path d="M997 773 c-31 -8 -7 -23 38 -23 48 0 75 8 75 21 0 9 -80 11 -113 2z"/>
<path d="M1220 771 c0 -12 37 -21 88 -21 42 0 56 12 26 24 -24 9 -114 7 -114
-3z"/>
<path d="M1152 753 c2 -10 10 -18 18 -18 8 0 16 8 18 18 2 12 -3 17 -18 17
-15 0 -20 -5 -18 -17z"/>
<path d="M937 682 c-10 -10 -17 -22 -17 -25 0 -11 38 -8 45 3 10 17 25 11 25
-9 0 -11 -16 -32 -35 -47 -53 -40 -47 -56 20 -52 54 3 76 20 35 26 l-20 3 20
26 c23 29 26 63 8 81 -18 18 -63 14 -81 -6z"/>
<path d="M1076 679 c-36 -28 -36 -80 0 -108 56 -44 124 -14 124 54 0 68 -68
98 -124 54z m84 -34 c14 -17 5 -51 -16 -59 -22 -8 -54 11 -54 32 0 38 46 56
70 27z"/>
<path d="M1236 684 c-9 -8 -16 -20 -16 -25 0 -13 38 -11 42 3 5 15 28 1 28
-16 0 -8 -16 -26 -35 -40 -52 -40 -46 -56 20 -56 42 0 55 3 55 15 0 8 -9 15
-20 15 -11 0 -20 3 -20 8 0 4 9 15 20 25 11 9 20 28 20 42 0 41 -63 61 -94 29z"/>
<path d="M1350 675 c0 -8 7 -15 14 -15 11 0 16 -15 18 -52 2 -41 7 -54 21 -56
15 -3 17 5 17 67 l0 71 -35 0 c-24 0 -35 -5 -35 -15z"/>
<path d="M427 343 c-4 -3 -7 -40 -7 -80 l0 -74 47 3 c37 2 50 8 58 24 l10 21
18 -23 c20 -26 65 -32 85 -12 18 18 15 85 -4 92 -34 13 -64 6 -80 -20 -15 -22
-19 -23 -26 -10 -5 9 -7 25 -3 35 8 27 -20 51 -59 51 -18 0 -36 -3 -39 -7z
m63 -44 c0 -5 -7 -9 -15 -9 -15 0 -20 12 -9 23 8 8 24 -1 24 -14z m120 -29 c0
-5 -4 -10 -10 -10 -5 0 -10 5 -10 10 0 6 5 10 10 10 6 0 10 -4 10 -10z m-114
-21 c3 -6 0 -15 -7 -20 -22 -14 -29 -11 -29 11 0 21 24 27 36 9z m124 -19 c0
-5 -9 -10 -20 -10 -11 0 -20 5 -20 10 0 6 9 10 20 10 11 0 20 -4 20 -10z"/>
<path d="M1037 337 c-18 -13 -22 -33 -19 -104 2 -36 5 -43 22 -43 17 0 20 7
20 40 0 22 5 40 10 40 6 0 10 7 10 15 0 8 -5 15 -12 15 -9 0 -9 3 0 12 29 29
3 51 -31 25z"/>
<path d="M1227 343 c-4 -3 -7 -39 -7 -80 0 -58 3 -73 15 -73 14 0 17 7 19 55
1 11 9 21 19 23 14 3 17 -4 17 -37 0 -33 4 -41 18 -41 16 0 18 8 17 46 -1 51
-22 76 -56 67 -11 -3 -19 -2 -18 3 6 34 -7 54 -24 37z"/>
<path d="M1517 343 c-4 -3 -7 -39 -7 -80 l0 -73 36 0 c19 0 44 5 55 10 20 11
26 54 9 65 -5 3 -7 19 -4 34 5 23 2 32 -14 40 -23 12 -65 15 -75 4z m54 -46
c-13 -13 -26 -3 -16 12 3 6 11 8 17 5 6 -4 6 -10 -1 -17z m9 -52 c0 -8 -7 -15
-15 -15 -8 0 -15 7 -15 15 0 8 7 15 15 15 8 0 15 -7 15 -15z"/>
<path d="M769 313 c-4 -40 4 -99 13 -110 13 -16 48 -17 48 -3 0 6 -7 22 -16
35 -15 23 -15 25 0 31 21 8 20 19 -1 44 -21 25 -43 26 -44 3z"/>
<path d="M1142 309 c-9 -13 -10 -25 -3 -32 5 -7 11 -25 13 -41 4 -36 32 -56
50 -38 11 11 10 15 -4 23 -22 12 -23 45 -3 53 8 3 15 10 15 16 0 5 -7 10 -15
10 -8 0 -15 7 -15 15 0 22 -23 18 -38 -6z"/>
<path d="M1852 310 c-7 -12 -17 -18 -22 -15 -23 14 -49 12 -66 -6 -14 -15 -14
-21 -4 -34 7 -8 19 -15 26 -15 8 0 14 -4 14 -9 0 -4 -11 -6 -25 -3 -14 2 -25
0 -25 -5 0 -16 23 -33 45 -33 47 0 62 54 20 70 -33 13 -32 15 7 14 29 -1 34
-5 38 -34 6 -38 33 -61 51 -43 9 9 8 16 -5 28 -20 20 -21 41 -1 49 8 3 15 10
15 16 0 5 -7 10 -15 10 -8 0 -15 7 -15 15 0 22 -23 18 -38 -5z"/>
<path d="M693 299 c-29 -11 -31 -49 -3 -56 30 -8 24 -21 -6 -15 -24 4 -25 3
-15 -17 7 -12 21 -21 34 -21 48 0 65 54 22 70 -32 12 -32 22 0 14 20 -5 24 -3
19 9 -8 21 -25 26 -51 16z"/>
<path d="M901 286 c-35 -38 -12 -96 38 -96 56 0 83 52 49 95 -25 32 -58 32
-87 1z m67 -39 c4 -20 -25 -34 -40 -19 -15 15 -1 44 19 40 10 -2 19 -11 21
-21z"/>
<path d="M1370 297 c-32 -16 -40 -72 -13 -93 22 -17 65 -18 81 -2 21 21 15 75
-10 92 -27 19 -26 19 -58 3z m40 -25 c0 -5 -7 -9 -15 -9 -8 0 -12 4 -9 9 3 4
9 8 15 8 5 0 9 -4 9 -8z m5 -42 c-3 -5 -12 -10 -20 -10 -8 0 -17 5 -20 10 -4
6 5 10 20 10 15 0 24 -4 20 -10z"/>
<path d="M1646 284 c-33 -32 -5 -94 43 -94 35 0 51 17 51 55 0 17 -5 36 -12
43 -17 17 -64 15 -82 -4z m59 -13 c3 -6 -3 -9 -14 -8 -11 0 -17 5 -15 9 7 11
22 10 29 -1z m5 -41 c0 -5 -9 -10 -20 -10 -11 0 -20 5 -20 10 0 6 9 10 20 10
11 0 20 -4 20 -10z"/>
</g>
</svg>
