<?xml version="1.0" standalone="no"?>
<!DOCTYPE svg PUBLIC "-//W3C//DTD SVG 20010904//EN"
 "http://www.w3.org/TR/2001/REC-SVG-20010904/DTD/svg10.dtd">
<svg version="1.0" xmlns="http://www.w3.org/2000/svg"
 width="700.000000pt" height="394.000000pt" viewBox="0 0 700.000000 394.000000"
 preserveAspectRatio="xMidYMid meet">
<metadata>
Created by potrace 1.16, written by Peter Selinger 2001-2019
</metadata>
<g transform="translate(0.000000,394.000000) scale(0.100000,-0.100000)"
fill="#000000" stroke="none">
<path d="M0 3315 c0 -556 2 -624 15 -619 9 4 20 15 26 25 5 11 16 19 24 19 8
0 15 5 15 11 0 7 12 22 26 35 14 13 22 28 19 34 -3 5 3 15 15 22 11 7 20 18
20 25 0 6 14 17 30 25 17 7 30 16 30 20 0 10 91 49 100 43 5 -3 32 11 62 30
29 20 63 38 76 41 12 4 22 12 22 20 0 8 5 14 11 14 16 0 143 63 147 72 2 5 14
8 26 8 12 0 44 11 72 24 47 23 101 47 174 79 19 9 96 39 170 67 74 28 144 55
155 60 11 5 85 27 165 50 80 22 161 47 180 54 48 19 191 63 270 82 36 9 70 20
75 24 6 4 26 11 45 15 51 10 190 54 225 70 57 27 240 94 290 107 28 7 53 17
57 23 4 5 22 10 40 11 18 1 85 18 148 38 103 33 163 48 283 75 21 5 41 11 44
15 10 10 -991 -1 -1092 -12 -195 -21 -270 -36 -292 -58 -7 -7 -42 -16 -78 -19
-51 -6 -67 -4 -80 8 -14 14 -12 18 12 35 16 11 51 23 78 26 155 21 26 26 -762
26 l-843 0 0 -625z"/>
<path d="M4970 3915 c-7 -14 -19 -25 -25 -25 -7 0 -18 -7 -25 -15 -7 -8 -23
-15 -35 -15 -13 0 -42 -17 -66 -40 -24 -22 -48 -40 -55 -40 -6 0 -29 -13 -50
-28 -21 -16 -61 -34 -89 -41 -86 -23 -309 -111 -461 -182 -34 -16 -67 -29 -73
-29 -6 0 -19 -5 -29 -11 -19 -12 -28 -7 -142 79 -55 41 -208 122 -232 122 -20
0 -63 18 -98 40 -33 22 -148 52 -202 52 -24 1 -60 -7 -80 -16 -21 -10 -54 -18
-75 -17 -132 4 -173 7 -173 14 0 5 -12 7 -27 6 -16 -1 -62 1 -104 5 -66 7 -85
5 -140 -15 -35 -12 -69 -26 -76 -31 -6 -5 -27 -6 -46 -3 -27 5 -37 3 -45 -11
-5 -9 -19 -18 -31 -19 -12 -1 -27 -8 -34 -17 -15 -20 -63 -36 -52 -17 6 9 3
11 -9 6 -10 -4 -20 -7 -22 -7 -2 0 -4 -11 -4 -24 0 -17 -14 -35 -47 -60 -31
-24 -57 -55 -73 -89 -14 -29 -35 -60 -47 -70 -13 -10 -23 -27 -23 -37 0 -37
-22 -70 -47 -70 -23 0 -29 -14 -17 -44 3 -9 10 -14 15 -11 4 3 13 -4 19 -15 9
-16 8 -22 -4 -26 -13 -5 -13 -8 -1 -20 7 -8 18 -14 24 -14 15 0 14 -30 -1 -30
-7 -1 -31 -17 -53 -36 l-40 -35 33 16 c31 15 35 15 51 1 10 -9 25 -16 34 -16
23 0 21 -23 -2 -44 -22 -20 -33 -64 -17 -69 17 -7 -9 -29 -36 -31 -13 -1 -29
7 -37 18 -12 16 -12 20 3 28 9 5 16 16 16 25 0 15 -2 15 -18 0 -23 -21 -38
-22 -46 -2 -10 27 -26 16 -32 -24 -4 -26 -11 -38 -19 -35 -7 3 -16 0 -20 -5
-9 -15 -73 -41 -100 -41 -13 0 -25 -5 -27 -11 -2 -6 -30 -17 -63 -24 -63 -14
-98 -24 -207 -56 -37 -11 -71 -20 -74 -19 -4 1 -10 -2 -13 -7 -7 -11 -134 -43
-167 -43 -12 0 -27 -6 -33 -14 -6 -7 -31 -16 -56 -19 -25 -4 -82 -15 -127 -26
-46 -10 -117 -24 -158 -31 -126 -20 -214 -40 -244 -55 -15 -8 -36 -15 -45 -15
-9 0 -21 -4 -26 -8 -14 -12 -113 -29 -267 -47 -21 -2 -54 -8 -75 -14 -21 -5
-65 -14 -98 -20 -33 -6 -98 -17 -145 -25 -47 -9 -101 -17 -120 -18 l-35 -3 -3
-214 -2 -214 36 6 c21 4 40 10 43 15 3 5 23 15 44 21 20 7 37 16 37 21 0 5 17
14 38 21 20 7 64 25 97 41 116 57 212 98 228 98 8 0 29 7 47 17 45 22 368 112
403 113 11 0 31 9 46 19 15 11 40 23 57 26 32 8 116 45 124 55 3 4 23 13 45
20 22 7 44 16 50 21 5 5 18 9 30 9 11 0 31 10 45 21 l25 20 -67 -7 c-72 -7
-86 -1 -40 17 88 36 131 52 162 60 19 6 42 13 50 16 8 3 24 8 35 10 11 2 47
12 80 22 53 17 87 26 225 61 119 30 161 38 215 43 62 6 62 5 8 -30 -15 -10 -9
-12 40 -12 l57 -1 0 -40 c0 -53 26 -118 42 -102 6 6 16 59 22 119 9 91 14 108
28 105 12 -2 21 12 33 47 29 87 110 237 136 251 25 14 99 20 99 8 0 -18 131
-3 142 16 5 10 22 16 42 16 18 0 41 7 52 15 10 8 32 15 47 15 24 0 27 3 22 21
-6 18 -4 20 13 15 16 -5 60 6 81 21 2 1 -7 12 -20 24 l-24 21 27 -16 c37 -22
55 -21 37 1 -12 15 -12 16 4 10 9 -3 17 -3 17 1 0 4 11 12 25 18 18 9 25 9 28
0 3 -7 10 -6 23 5 18 16 96 20 111 6 3 -4 14 -2 24 4 13 6 19 6 19 -1 0 -37
74 -67 86 -35 7 18 44 20 44 3 0 -9 3 -10 8 -2 10 16 60 26 67 14 3 -5 -3 -10
-14 -10 -25 0 -34 -14 -26 -41 6 -16 12 -19 36 -14 18 4 29 3 29 -4 0 -6 -5
-11 -12 -11 -9 0 -9 -3 -1 -11 6 -6 23 -11 38 -11 16 0 30 -8 37 -22 6 -11 17
-25 23 -31 17 -14 26 -80 13 -93 -8 -8 -6 -18 6 -36 22 -35 20 -61 -8 -79 -21
-14 -25 -14 -39 0 -15 15 -17 15 -22 0 -4 -8 -13 -13 -21 -10 -8 3 -14 -1 -14
-11 0 -9 -4 -16 -10 -16 -17 0 -11 -21 12 -40 21 -17 35 -75 15 -63 -17 11
-26 -20 -11 -41 19 -27 18 -66 -1 -66 -8 0 -25 6 -36 13 -18 10 -23 9 -26 -1
-6 -16 -33 3 -33 23 0 7 -7 15 -15 19 -9 3 -15 0 -15 -9 0 -9 -10 -15 -22 -16
-13 -1 -54 -2 -91 -3 -37 -2 -73 -8 -79 -14 -7 -7 -19 -12 -27 -12 -14 0 -14
2 -1 11 11 8 2 9 -34 6 -27 -3 -52 -10 -56 -17 -4 -6 -16 -13 -26 -15 -10 -2
-21 -4 -24 -5 -6 -2 -67 -1 -90 1 -36 5 -61 -2 -57 -13 4 -13 -29 -48 -46 -48
-5 0 1 9 14 21 21 18 22 19 4 15 -20 -5 -48 5 -46 18 1 3 1 8 1 11 0 3 -17 -3
-37 -14 -21 -10 -42 -19 -48 -19 -5 -1 -12 -9 -14 -19 -3 -20 -58 -78 -73 -78
-5 0 -12 -6 -17 -13 -7 -11 -9 -11 -14 2 -4 10 -1 16 8 16 17 0 19 18 5 40
-11 17 -12 16 -33 -35 -9 -22 -16 -34 -16 -27 -1 11 -4 10 -16 -1 -7 -8 -34
-18 -59 -21 -25 -4 -48 -12 -52 -17 -3 -6 -12 -8 -19 -5 -7 2 -29 -13 -50 -34
-36 -37 -38 -41 -32 -87 3 -26 15 -66 26 -88 l20 -40 2 30 c1 29 1 29 8 5 5
-14 6 -40 3 -57 -5 -37 6 -42 30 -13 14 15 26 18 57 14 22 -3 49 -1 60 5 18
10 20 9 15 -6 -5 -16 -4 -16 8 -3 7 8 27 22 43 30 17 8 39 23 49 33 11 9 24
17 29 17 32 0 67 77 67 150 0 36 7 76 16 95 28 60 87 50 87 -15 0 -16 5 -30
10 -30 5 0 7 -9 4 -20 -3 -11 -1 -22 4 -25 5 -3 6 -25 3 -49 -3 -32 0 -48 11
-59 8 -9 15 -19 15 -23 0 -14 64 -64 82 -64 11 0 17 3 15 8 -3 4 -1 18 4 31 9
22 11 23 27 7 11 -9 36 -16 58 -16 56 0 121 -19 103 -31 -9 -6 5 -9 43 -9 31
0 65 -3 75 -6 13 -4 14 -3 5 4 -11 7 -8 11 10 15 33 9 45 8 28 -3 -24 -15 -3
-23 31 -11 23 8 36 8 45 0 9 -7 19 -7 33 0 11 6 30 11 43 11 20 1 21 2 6 11
-25 14 -23 32 2 24 25 -8 26 2 3 28 -18 19 -17 20 11 13 27 -7 28 -6 15 10
-11 13 -11 18 -1 21 6 3 12 11 12 19 0 19 42 28 108 21 35 -3 49 -2 37 3 -11
5 -33 9 -48 9 -41 1 -23 21 20 21 26 0 34 4 30 14 -7 19 28 60 45 53 10 -4 10
-6 1 -6 -14 -1 -19 -21 -5 -21 4 0 18 10 32 21 24 20 24 21 3 16 -26 -6 -59
15 -49 31 4 6 13 9 21 5 11 -3 13 -1 10 10 -4 9 2 16 15 20 17 4 20 11 15 26
-4 15 -2 21 8 21 22 0 25 -9 17 -46 -10 -44 -2 -74 19 -74 13 0 16 -9 16 -42
-1 -46 -23 -107 -40 -109 -5 -1 -20 -3 -33 -4 -13 -1 -29 -8 -35 -15 -10 -10
-3 -11 30 -7 24 3 46 1 49 -4 3 -5 -9 -9 -26 -9 -24 0 -31 -4 -27 -14 3 -8 1
-17 -6 -19 -7 -2 -2 -12 13 -25 14 -12 20 -21 15 -22 -6 0 -15 4 -21 10 -6 6
-14 3 -22 -10 -7 -11 -8 -20 -3 -20 5 0 12 6 14 13 4 9 6 9 6 0 2 -24 -20 -23
-54 3 -19 14 -35 22 -35 16 0 -6 8 -17 18 -24 45 -34 45 -45 6 -72 -28 -19
-41 -23 -51 -15 -7 6 -20 8 -29 5 -11 -4 -15 -2 -11 8 4 9 -1 13 -17 12 -28
-1 -29 -35 -1 -42 12 -3 27 -14 34 -25 20 -34 -1 -48 -67 -44 -31 2 -47 1 -35
-2 14 -3 21 -11 20 -25 -1 -17 -6 -19 -34 -15 -18 3 -33 2 -33 -3 0 -4 -6 -8
-12 -7 -32 1 -48 -4 -48 -14 0 -7 11 -9 30 -5 17 3 30 2 30 -3 0 -5 -26 -12
-57 -17 -50 -6 -54 -8 -28 -14 l30 -6 -27 -5 c-18 -4 -29 -1 -32 7 -7 19 -62
18 -70 -2 -3 -8 -11 -12 -17 -8 -8 4 -7 9 2 15 10 6 8 9 -8 9 -11 0 -32 13
-46 29 -14 17 -28 27 -31 24 -3 -4 -6 -1 -6 5 0 7 -13 12 -29 12 -20 0 -36 9
-49 25 -11 14 -25 25 -32 25 -7 0 -10 6 -7 14 3 8 -5 19 -19 26 -25 14 -32 30
-12 30 6 0 9 3 6 6 -3 3 -22 2 -43 -2 -25 -4 -35 -11 -31 -20 3 -9 -2 -14 -13
-14 -10 0 -21 9 -24 21 l-6 20 -20 -20 c-12 -12 -21 -28 -21 -36 0 -9 -7 -18
-15 -21 -8 -4 -15 -13 -15 -21 0 -7 -6 -13 -13 -11 -7 2 -31 -15 -53 -37 -43
-43 -89 -69 -105 -59 -11 6 -41 -21 -32 -30 3 -3 1 -12 -6 -20 -9 -11 -9 -15
1 -18 7 -3 -1 -16 -21 -33 -30 -27 -31 -30 -15 -42 16 -12 16 -13 1 -13 -9 0
-16 -3 -15 -7 2 -5 -7 -24 -20 -44 -14 -23 -20 -44 -15 -55 5 -13 3 -16 -10
-11 -11 4 -22 -2 -33 -18 -9 -14 -22 -25 -29 -25 -9 0 -10 -8 -1 -35 6 -19 15
-34 21 -31 6 2 10 -21 11 -58 1 -33 -1 -50 -3 -36 -6 32 -23 51 -23 24 0 -41
61 -188 98 -237 22 -29 72 -101 113 -161 41 -61 109 -147 152 -192 42 -45 77
-86 77 -91 0 -5 10 -15 23 -22 12 -6 39 -37 61 -67 21 -31 46 -58 55 -61 9 -3
23 -11 31 -18 21 -16 102 -45 127 -45 30 0 40 20 11 21 -19 0 -15 4 17 19 46
21 65 24 65 10 0 -5 -7 -10 -16 -10 -11 0 -14 -5 -10 -16 4 -11 -4 -26 -23
-44 -27 -27 -31 -28 -77 -18 -27 6 -51 13 -54 17 -3 3 -11 6 -17 7 -7 1 -22 2
-34 2 -21 2 -159 135 -159 154 0 6 -3 9 -6 6 -18 -19 69 -120 144 -165 41 -26
180 -73 212 -73 11 0 48 22 83 49 34 26 125 90 202 141 77 51 183 126 235 165
52 40 128 94 169 120 41 27 113 86 162 132 91 87 108 120 100 196 -1 16 2 34
8 40 32 39 122 353 136 474 7 58 80 300 96 317 5 6 9 18 9 28 0 10 4 18 8 18
5 0 20 18 35 41 20 30 28 57 32 107 8 113 16 161 31 173 8 6 14 26 14 43 0 35
-48 144 -72 164 -8 6 -23 31 -33 54 -26 63 -48 107 -83 163 -18 28 -41 88 -53
135 -20 80 -35 112 -68 152 -8 9 -15 25 -17 35 -1 10 -5 27 -10 38 -7 18 -6
18 9 6 22 -18 23 2 2 43 -8 15 -15 30 -15 32 0 2 32 4 70 4 39 0 70 3 70 8 0
4 19 8 43 9 126 5 188 12 240 27 32 9 69 16 82 16 13 0 26 4 29 9 13 21 232
42 306 29 19 -3 122 10 177 23 45 10 83 -3 83 -28 0 -7 7 -13 15 -13 8 0 15
-5 15 -12 0 -8 7 -6 17 5 14 14 15 21 7 35 -16 24 10 58 104 134 112 92 142
120 142 135 0 31 58 103 84 103 9 0 16 -6 16 -12 0 -7 18 -22 40 -32 22 -11
40 -22 40 -26 0 -4 14 -13 31 -20 17 -7 36 -18 43 -24 25 -23 79 -46 107 -46
21 0 41 -12 69 -40 22 -22 40 -44 40 -50 0 -5 6 -10 13 -10 8 0 27 -43 47
-107 18 -60 37 -111 42 -114 4 -3 15 -52 23 -110 28 -198 51 -289 75 -289 12
0 27 -59 36 -140 4 -42 13 -71 25 -82 17 -16 19 -16 40 6 19 20 22 36 25 126
3 90 6 106 26 127 17 18 23 38 26 91 2 37 8 78 14 92 5 14 16 39 23 55 7 17
16 38 19 48 9 27 27 16 52 -31 26 -50 35 -100 38 -212 3 -103 11 -143 42 -196
50 -85 163 -98 233 -26 63 64 69 67 91 47 11 -10 20 -26 20 -37 0 -10 4 -18 9
-18 4 0 13 -19 18 -42 8 -31 11 124 12 555 l1 597 -1008 0 -1009 0 -13 -25z
m-1322 -656 c-4 -15 66 -56 120 -70 23 -6 45 -16 48 -21 4 -6 -2 -8 -14 -4
-11 4 -23 3 -26 -2 -3 -6 -23 -4 -47 4 -22 8 -45 11 -51 8 -7 -4 -8 -2 -4 4 4
8 0 12 -11 12 -11 0 -25 6 -31 12 -10 10 -15 10 -22 -2 -14 -21 -12 -30 4 -24
8 3 21 -4 29 -16 9 -12 20 -19 25 -16 5 3 10 0 9 -7 -1 -43 6 -59 37 -79 19
-13 41 -36 50 -53 12 -24 15 -26 16 -10 1 20 1 20 15 1 23 -31 19 3 -5 42 -12
19 -16 32 -9 30 18 -6 46 -67 57 -123 6 -27 13 -61 18 -75 7 -23 6 -24 -9 -11
-10 7 -16 19 -16 25 1 6 0 18 -4 26 -3 8 -8 22 -10 30 -3 8 -5 -4 -5 -27 1
-24 5 -43 10 -43 4 0 8 -7 8 -15 0 -18 -16 -20 -24 -2 -7 13 -2 -19 10 -68 l7
-30 -21 25 c-25 29 -27 20 -7 -35 10 -28 14 -33 15 -18 1 57 58 -41 61 -106 0
-9 6 -4 13 13 13 28 13 28 19 5 3 -13 2 -28 -4 -35 -6 -7 -6 -32 -1 -68 7 -44
6 -56 -4 -56 -8 0 -16 11 -20 25 -7 30 -24 33 -24 5 0 -11 5 -20 10 -20 6 0
10 -4 10 -10 0 -5 -7 -10 -16 -10 -10 0 -14 -5 -10 -16 3 -8 2 -12 -4 -9 -6 3
-10 18 -10 32 0 25 -1 25 -19 9 -19 -17 -19 -17 -14 2 3 12 12 23 20 26 9 4
12 13 8 26 -4 12 -8 35 -10 53 -3 18 -6 39 -8 47 -2 8 -7 33 -11 55 -10 54
-38 115 -53 115 -7 0 -13 5 -13 11 0 5 -4 8 -8 5 -5 -3 -15 6 -22 19 -7 14
-19 25 -26 25 -6 0 -15 16 -19 36 -6 32 -9 35 -32 29 -24 -6 -24 -5 -9 11 19
18 17 35 -4 42 -9 3 -11 -1 -7 -12 8 -21 -9 -21 -32 2 -26 25 -32 49 -19 77
11 25 36 29 31 6 -4 -15 14 -14 21 2 3 6 3 2 0 -11 -5 -22 21 -61 33 -48 4 3
1 12 -5 18 -18 18 -15 26 11 30 45 6 10 87 -41 94 -7 2 -19 8 -27 14 -11 9
-12 16 -2 31 9 15 9 23 -1 39 -14 23 -10 26 43 33 17 2 31 5 33 6 1 0 1 -4 0
-10z m-524 -821 c23 -19 62 -16 126 8 34 13 35 13 11 -4 -37 -26 -91 -42 -146
-43 -47 -1 -48 -1 -20 -11 17 -5 37 -12 45 -15 28 -11 95 -1 140 19 25 12 49
20 53 19 4 0 17 8 29 19 24 22 38 26 38 10 0 -5 6 -10 13 -10 8 0 22 -9 32
-20 16 -18 17 -20 1 -20 -9 0 -24 -15 -33 -34 -17 -37 -41 -45 -133 -46 -25 0
-80 -2 -122 -3 -61 -3 -78 -1 -78 10 0 7 -5 13 -11 13 -5 0 -7 -4 -4 -10 13
-20 -46 -5 -68 18 -18 19 -19 24 -7 32 46 27 90 66 90 80 0 22 13 35 19 18 2
-7 14 -20 25 -30z m-29 -528 c-3 -10 -1 -21 5 -25 5 -3 10 -1 10 4 0 6 5 11
10 11 6 0 10 -6 10 -13 0 -7 9 -18 20 -25 11 -7 20 -19 20 -27 0 -8 4 -15 9
-15 5 0 11 -9 14 -19 5 -19 8 -19 56 -6 28 7 51 9 51 4 0 -5 -7 -9 -16 -9 -9
0 -35 -9 -58 -19 -67 -31 -135 -50 -139 -37 -2 7 -13 5 -29 -6 -17 -12 -29
-13 -36 -6 -7 7 -16 7 -29 -1 -17 -10 -16 -10 5 -11 25 0 59 -27 48 -37 -10
-11 -65 -13 -71 -3 -7 12 -47 -5 -99 -42 -31 -22 -51 -28 -89 -28 -38 0 -62
-7 -99 -30 -58 -36 -63 -36 -65 -9 -2 29 -10 34 -27 20 -11 -9 -15 -9 -18 0
-3 9 -9 9 -26 0 -21 -11 -22 -10 -22 31 0 28 9 57 25 83 13 22 33 59 44 83 28
58 53 56 119 -8 28 -27 59 -50 69 -50 21 1 63 33 63 49 0 13 27 3 33 -12 2 -7
3 -4 1 7 -2 11 5 20 17 23 19 5 27 33 9 33 -5 0 -10 5 -10 11 0 5 8 9 18 8 50
-7 142 41 142 74 0 7 9 13 20 14 16 1 20 -3 15 -17z m285 -249 c-24 -7 -24 -7
-5 -19 11 -6 16 -12 10 -12 -5 0 1 -7 13 -16 12 -8 22 -22 22 -30 0 -17 -12
-18 -28 -2 -7 7 -12 8 -12 2 0 -6 9 -19 19 -28 22 -20 23 -62 2 -75 -8 -6 -14
-26 -14 -52 1 -24 -5 -55 -12 -69 -18 -34 -29 -63 -26 -73 3 -15 -20 -47 -34
-47 -8 0 -20 -8 -27 -19 -7 -10 -30 -23 -51 -29 -33 -9 -38 -9 -36 6 3 31 -1
31 -28 6 -20 -18 -29 -22 -37 -13 -8 8 -8 13 1 16 9 3 10 7 1 17 -9 9 -17 6
-38 -16 -26 -27 -60 -38 -60 -19 0 11 -53 1 -62 -13 -4 -6 -25 -9 -47 -7 -45
3 -53 -5 -18 -19 20 -8 20 -9 2 -10 -11 0 -28 -7 -38 -15 -11 -7 -24 -12 -30
-10 -18 7 -46 -19 -44 -39 1 -13 -6 -19 -23 -21 -19 -2 -31 6 -53 35 -15 21
-27 42 -27 47 0 21 -37 79 -48 75 -8 -2 -12 8 -12 27 0 17 -4 31 -8 31 -13 0
-30 62 -31 113 0 26 4 47 9 47 5 0 16 7 25 16 12 13 19 14 30 4 12 -10 16 -9
21 4 9 24 50 42 129 56 39 6 97 20 130 30 33 11 67 18 75 17 22 -2 87 11 149
31 42 13 55 14 58 5 5 -15 33 -17 33 -3 0 6 -5 10 -11 10 -5 0 -7 5 -4 11 4 6
13 8 21 5 8 -3 14 -1 14 4 0 15 17 12 35 -6 12 -12 19 -14 27 -6 8 8 5 14 -13
22 -24 10 -24 10 3 7 15 -2 25 0 22 4 -9 15 6 29 29 28 20 -1 20 -2 -3 -8z"/>
<path d="M3183 1557 c-4 -8 -21 -17 -38 -20 -16 -3 -48 -14 -70 -23 -22 -10
-49 -19 -60 -20 -79 -7 -127 -20 -174 -46 -43 -24 -63 -29 -93 -25 -27 4 -38
2 -35 -6 6 -19 67 -56 81 -51 8 3 16 -5 20 -20 7 -30 23 -32 81 -11 63 23 206
56 216 49 5 -3 9 0 9 5 0 6 6 11 13 11 7 0 20 9 30 20 9 11 26 20 37 20 22 0
27 16 8 23 -10 3 -10 9 -1 25 7 12 15 35 18 51 4 26 2 31 -14 31 -11 0 -24 -6
-28 -13z"/>
<path d="M6973 2401 c-25 -24 -137 -81 -158 -81 -8 0 -15 -4 -15 -8 0 -5 -18
-15 -41 -22 -22 -8 -42 -17 -45 -21 -3 -5 -24 -18 -47 -29 -88 -44 -113 -60
-92 -60 16 0 17 -2 5 -9 -8 -6 -18 -7 -23 -4 -4 2 -19 -7 -32 -21 -14 -16 -40
-28 -65 -32 -23 -4 -47 -12 -54 -18 -34 -31 -181 -77 -259 -81 -21 -1 -45 -9
-54 -18 -15 -15 -15 -17 8 -26 29 -11 78 -4 99 14 8 7 31 15 50 18 19 3 78 13
130 22 114 19 248 13 315 -15 11 -4 39 -13 63 -19 23 -7 42 -16 42 -21 0 -4
11 -22 25 -38 23 -28 24 -32 10 -58 -8 -16 -15 -39 -15 -50 0 -29 -12 -37 -96
-67 -85 -30 -109 -27 -124 18 -6 18 -21 37 -35 43 -14 7 -25 16 -25 20 0 10
34 47 69 75 18 14 19 20 9 31 -9 10 -15 11 -20 2 -6 -8 -8 -8 -8 0 0 19 -37
23 -66 8 -14 -8 -34 -14 -44 -14 -22 0 -44 -51 -35 -79 3 -12 13 -21 21 -21
14 0 20 -36 7 -42 -13 -5 -53 -67 -53 -81 0 -22 -53 -64 -90 -72 -47 -10 -86
-31 -94 -50 -11 -29 5 -71 34 -88 30 -18 100 -22 128 -8 9 5 37 17 62 26 25
10 74 31 108 47 l64 30 59 -17 c33 -9 78 -18 101 -21 23 -3 46 -7 50 -10 14
-9 8 -48 -10 -70 -21 -25 -152 -91 -198 -100 -19 -3 -37 -10 -40 -15 -3 -5
-18 -9 -33 -9 -15 0 -36 -7 -47 -15 -10 -8 -28 -15 -40 -15 -15 0 -27 -15 -46
-57 -22 -50 -23 -61 -12 -78 17 -26 33 -150 31 -235 -1 -36 0 -201 1 -368 2
-217 -1 -318 -10 -357 -7 -30 -16 -55 -21 -55 -4 0 -3 -9 3 -19 19 -36 10 -36
-13 -1 -41 66 -141 195 -196 253 -85 89 -176 125 -387 152 -66 8 -147 22 -180
31 -60 16 -258 58 -529 114 -82 16 -217 44 -300 61 -162 34 -141 24 -280 139
-39 33 -122 116 -162 164 -32 37 -34 39 -80 32 -61 -8 -68 -17 -49 -54 9 -17
16 -39 16 -49 0 -10 -50 -101 -111 -203 -134 -224 -226 -410 -336 -677 l-51
-123 149 0 c140 0 149 1 149 19 0 26 43 59 87 67 45 8 88 -21 88 -60 l-1 -26
1383 0 1383 0 0 476 0 477 -32 -7 c-18 -3 -40 -15 -50 -26 -9 -11 -21 -20 -27
-20 -6 0 -11 -4 -11 -10 0 -5 -4 -9 -8 -7 -15 4 -67 -48 -78 -78 -6 -17 -15
-38 -19 -47 -5 -13 -2 -18 9 -18 9 0 16 -7 16 -15 0 -8 -4 -15 -10 -15 -5 0
-14 -18 -20 -40 -8 -28 -19 -44 -40 -55 -16 -8 -31 -24 -35 -35 -7 -20 -25
-28 -25 -10 0 6 -6 10 -13 10 -7 0 -21 12 -32 27 -11 15 -30 38 -42 52 l-22
26 -1 -25 c-1 -19 -5 -13 -15 20 -8 25 -19 54 -24 65 -13 26 -39 246 -43 351
-2 72 0 82 21 103 12 12 33 24 46 25 13 1 30 7 37 13 54 41 234 44 338 4 30
-12 60 -21 67 -21 10 0 13 128 13 600 0 330 -1 600 -3 600 -2 0 -13 -9 -24
-19z"/>
<path d="M0 995 c0 -147 10 -181 30 -105 6 22 20 44 30 50 17 9 20 21 20 75 0
58 -3 66 -31 94 -17 17 -35 31 -40 31 -5 0 -9 -63 -9 -145z"/>
<path d="M0 360 l0 -360 345 0 c190 0 345 3 345 8 0 4 -19 19 -43 34 -24 15
-49 39 -57 53 -7 14 -17 25 -22 25 -4 0 -8 4 -8 9 0 15 -64 76 -92 89 -16 6
-29 16 -29 22 -1 5 -2 15 -3 21 0 6 -9 16 -18 23 -10 7 -18 23 -18 35 0 11 -5
21 -11 21 -6 0 -24 13 -40 29 -30 30 -37 51 -18 51 12 0 -27 52 -77 103 -67
68 -105 96 -139 103 -19 3 -35 10 -35 15 0 12 -61 79 -72 79 -4 0 -8 -162 -8
-360z"/>
<path d="M3260 513 c0 -4 -23 -21 -51 -37 -48 -27 -51 -27 -44 -7 5 17 2 21
-15 21 -51 0 -111 -53 -178 -158 -42 -65 -58 -117 -67 -217 -3 -33 -8 -72 -11
-88 -7 -34 20 -38 37 -4 12 24 58 66 73 67 4 0 5 -20 2 -45 l-7 -45 161 0
c134 0 161 2 157 14 -13 32 47 125 84 130 4 1 27 17 50 36 24 19 48 34 54 33
5 -2 20 13 32 31 27 42 76 68 106 57 12 -5 31 -7 42 -5 10 1 24 -1 30 -5 5 -5
26 -12 45 -15 34 -7 34 -6 15 9 -25 21 -312 165 -393 198 -72 30 -122 42 -122
30z"/>
<path d="M2828 321 c-20 -37 -48 -79 -62 -94 -22 -24 -160 -117 -288 -194
l-53 -32 217 -1 217 0 13 58 c15 65 17 289 2 314 -8 14 -16 5 -46 -51z"/>
</g>
</svg>
